<?xml version="1.0" encoding="UTF-8"?>
<svg width="36px" height="37px" viewBox="0 0 36 37" version="1.1" xmlns="http://www.w3.org/2000/svg" xmlns:xlink="http://www.w3.org/1999/xlink">
    <title>验证码</title>
    <g id="页面-1" stroke="none" stroke-width="1" fill="none" fill-rule="evenodd">
        <g id="注册账号1" transform="translate(-50.000000, -605.000000)" fill="#0069FF" fill-rule="nonzero">
            <g id="验证码-2" transform="translate(50.000000, 606.000000)">
                <g id="验证码" transform="translate(2.000000, 0.000000)">
                    <path d="M14.8578753,22.3928823 C14.5985893,22.3928823 14.3393033,22.3064536 14.166446,22.0471676 L10.7957278,18.503592 C10.4500131,18.0714487 10.4500131,17.466448 10.8821564,17.1207333 C11.3142998,16.7750186 11.9193005,16.7750186 12.2650152,17.207162 L14.944304,19.9728795 L20.9078824,14.0093011 C21.3400257,13.5771577 21.9450265,13.5771577 22.2907411,14.0093011 C22.7228845,14.4414445 22.7228845,15.0464452 22.2907411,15.3921599 L15.6357334,22.0471676 C15.3764474,22.3064536 15.1171614,22.3928823 14.8578753,22.3928823 Z" id="路径"></path>
                    <path d="M16.5000201,35.3571831 L16.2407341,35.3571831 C0.856430482,31.1221782 0.424287122,8.39143742 0.424287122,7.44072203 C0.424287122,6.92215 0.77000181,6.49000664 1.28857384,6.40357797 C11.6600145,4.58857585 15.8085907,1.0450003 15.8950194,0.95857163 C16.2407341,0.612856942 16.8457348,0.612856942 17.1914495,0.95857163 C17.2778782,1.0450003 21.5128831,4.58857585 31.7978951,6.40357797 C32.3164671,6.49000664 32.6621818,6.92215 32.6621818,7.44072203 C32.6621818,8.39143742 32.2300384,31.1221782 16.8457348,35.3571831 L16.5000201,35.3571831 Z M2.41214658,8.30500875 C2.67143259,12.2807277 4.40000603,29.7393194 16.5000201,33.282895 C28.6000342,29.7393194 30.3286076,12.2807277 30.5878937,8.21858008 C22.3771698,6.66286398 18.0557362,4.07000382 16.5000201,3.03285976 C14.944304,4.15643249 10.6228704,6.74929265 2.41214658,8.30500875 Z" id="形状"></path>
                </g>
            </g>
        </g>
    </g>
</svg>