<?xml version="1.0" encoding="UTF-8"?>
<svg width="23px" height="24px" viewBox="0 0 23 24" version="1.1" xmlns="http://www.w3.org/2000/svg" xmlns:xlink="http://www.w3.org/1999/xlink">
    <title>关于应用</title>
    <g id="页面-1" stroke="none" stroke-width="1" fill="none" fill-rule="evenodd">
        <g id="苹果A面我的界面" transform="translate(-15.000000, -364.000000)" fill="#1B7CF6" stroke="#1B7CF6">
            <g id="关于应用" transform="translate(15.000000, 364.000000)">
                <g id="编组" transform="translate(1.000000, 3.992371)">
                    <path d="M9.521,17.4874581 C5.103,17.4874581 1.523,13.9131095 1.523,9.50331557 C1.523,5.09352162 5.103,1.52017116 9.521,1.52017116 C13.939,1.52017116 17.519,5.09352162 17.519,9.50331557 C17.519,13.9131095 13.939,17.4874581 9.521,17.4874581 M9.521,0 C4.265,0 0,4.25807628 0,9.50331557 C0,14.749553 4.265,19.0076293 9.521,19.0076293 C14.777,19.0076293 19.042,14.749553 19.042,9.50331557 C19.042,4.25807628 14.777,0 9.521,0" id="Fill-1" stroke-width="0.1"></path>
                    <path d="M8.3784,13.6854332 C8.3784,14.3152612 8.8904,14.8263102 9.5214,14.8263102 C10.1514,14.8263102 10.6634,14.3152612 10.6634,13.6854332 C10.6634,13.0556052 10.1514,12.5445562 9.5214,12.5445562 C8.8904,12.5445562 8.3784,13.0556052 8.3784,13.6854332" id="Fill-3" stroke-width="0.3"></path>
                    <path d="M9.521,4.18161855 C9.102,4.18161855 8.759,4.52398146 8.759,4.9422032 L8.759,11.023886 C8.759,11.4421077 9.102,11.7844706 9.521,11.7844706 C9.94,11.7844706 10.283,11.4421077 10.283,11.023886 L10.283,4.9422032 C10.283,4.52398146 9.94,4.18161855 9.521,4.18161855" id="Fill-5" stroke-width="0.3"></path>
                </g>
            </g>
        </g>
    </g>
</svg>