<?xml version="1.0" encoding="UTF-8"?>
<svg width="18px" height="18px" viewBox="0 0 18 18" version="1.1" xmlns="http://www.w3.org/2000/svg" xmlns:xlink="http://www.w3.org/1999/xlink">
    <title>增加人数图标</title>
    <g id="页面-1" stroke="none" stroke-width="1" fill="none" fill-rule="evenodd">
        <g id="我的订单" transform="translate(-134.000000, -451.000000)">
            <g id="增加人数图标" transform="translate(134.000000, 451.000000)">
                <g id="编组" transform="translate(1.500000, 1.499967)">
                    <g fill="#006FFF" id="Fill-1">
                        <path d="M7.50006667,0 C3.35769651,0 0,3.35800746 0,7.50001667 C0,11.6420259 3.35769651,15.0000333 7.50006667,15.0000333 C11.6421035,15.0000333 15.0001333,11.6420259 15.0001333,7.50001667 C15.0001333,3.35800746 11.6421035,0 7.50006667,0"></path>
                    </g>
                    <g id="编组-4" transform="translate(3.000000, 3.000033)">
                        <g id="编组" fill="#FFFFFF">
                            <path d="M3.00393672,4.19679266 C3.01746083,4.1878725 3.03702764,4.17147091 3.04292646,4.16758632 C3.05227824,4.16370174 3.05486797,4.15794679 3.07457865,4.14284007 C3.16104668,4.08025505 3.24895344,4.02040364 3.34002543,3.96587555 C2.78021328,3.50058835 2.44067161,2.8111461 2.44067161,2.05753623 C2.44067161,1.78705388 2.48584791,1.5270743 2.56742424,1.28292081 C2.52469378,1.27932398 2.4821072,1.2764465 2.43822575,1.2764465 C1.58750121,1.2764465 0.897771211,1.94862392 0.897771211,2.77733581 C0.897771211,3.44303892 1.34262836,4.0064479 1.95811958,4.2031231 C0.838351417,4.50468215 0,5.72012625 0,7.10620443 C0,7.13267717 0.530893552,7.12361313 1.29428683,7.11469297 C1.50534939,5.91363623 2.13206275,4.85918668 3.00393672,4.19679266" id="Fill-1"></path>
                            <path d="M5.4004679,7.15857442 C5.4004679,6.02959834 6.24443039,5.09629036 7.33412897,4.95040253 C6.88366076,4.47374933 6.33017905,4.13219342 5.71785305,3.99134117 C6.53275307,3.70603984 7.1165921,2.948977 7.1165921,2.05753623 C7.1165921,0.921222606 6.17019162,0 5.00308904,0 C3.8358426,0 2.88972986,0.921222606 2.88972986,2.05753623 C2.88972986,2.97343551 3.50522108,3.74905805 4.35522626,4.01522419 C2.81664207,4.42598329 1.66392686,6.10038415 1.66392686,8.00786023 C1.66392686,8.02627605 1.84448822,8.03217486 2.1551113,8.03217486 C2.7762136,8.03217486 3.91799442,8.00786023 5.17746384,8.00786023 C5.31054691,8.00786023 5.44104026,8.0080041 5.5693755,8.00814797 C5.45772959,7.73881661 5.40032403,7.45006231 5.4004679,7.15857442" id="Fill-3"></path>
                            <path d="M7.63079632,5.37714599 C6.64857131,5.37714599 5.84935351,6.17650767 5.84935351,7.15873268 C5.84935351,8.14095769 6.64857131,8.94031936 7.63079632,8.94031936 C8.61287745,8.94031936 9.412383,8.14095769 9.412383,7.15873268 C9.412383,6.17650767 8.61302133,5.37714599 7.63079632,5.37714599" id="Fill-5"></path>
                        </g>
                        <g id="编组-3" transform="translate(6.700049, 6.227971)" fill="#006FFF">
                            <path d="M1.71669969,1.0754551 L0.144880707,1.0754551 C0.0648869897,1.0754551 0,1.01071198 0,0.930718263 C0,0.850724546 0.0648869897,0.78598143 0.144880707,0.78598143 L1.71669969,0.78598143 C1.79669341,0.78598143 1.8615804,0.850724546 1.8615804,0.930718263 C1.8615804,1.01071198 1.79669341,1.0754551 1.71669969,1.0754551" id="Fill-7"></path>
                            <path d="M0.786024592,1.71669969 L0.786024592,0.144736833 C0.786024592,0.0648869897 0.850767708,0 0.930761425,0 C1.01075514,0 1.07564213,0.0648869897 1.07564213,0.144736833 L1.07564213,1.71669969 C1.07564213,1.79669341 1.01075514,1.86143653 0.930761425,1.86143653 C0.850767708,1.86143653 0.786024592,1.79669341 0.786024592,1.71669969" id="Fill-9"></path>
                        </g>
                    </g>
                </g>
            </g>
        </g>
    </g>
</svg>