<?xml version="1.0" encoding="UTF-8"?>
<svg width="24px" height="24px" viewBox="0 0 24 24" version="1.1" xmlns="http://www.w3.org/2000/svg" xmlns:xlink="http://www.w3.org/1999/xlink">
    <title>支付宝图标</title>
    <g id="页面-1" stroke="none" stroke-width="1" fill="none" fill-rule="evenodd">
        <g id="查询支付界面" transform="translate(-43.000000, -274.000000)" fill-rule="nonzero">
            <g id="支付宝支付" transform="translate(16.000000, 274.000000)">
                <g id="编组" transform="translate(27.000000, 0.000000)">
                    <g id="支付宝" transform="translate(2.000000, 2.000000)">
                        <rect id="矩形" fill="#000000" opacity="0" x="0" y="0" width="20" height="20"></rect>
                        <path d="M4.50724637,11.2608696 C4.26086955,11.4492754 4.01449273,11.7246377 3.94202898,12.0869565 C3.84057971,12.5652174 3.92753623,13.173913 4.3768116,13.6521739 C4.94202898,14.2173913 5.79710146,14.3768116 6.17391305,14.4057971 C7.17391305,14.4782609 8.24637682,13.9710145 9.05797102,13.4202899 C9.3768116,13.2028986 9.91304348,12.7536232 10.4347826,12.057971 C9.27536232,11.4637681 7.82608697,10.7971014 6.28985508,10.8550725 C5.47826088,10.884058 4.91304348,11.0434783 4.50724637,11.2608696 L4.50724637,11.2608696 Z M19.2028986,13.9130435 C19.7101449,12.7101449 20,11.3913044 20,10 C20,4.49275363 15.5072464,0 10,0 C4.49275363,0 0,4.49275363 0,10 C0,15.5072464 4.49275363,20 10,20 C13.3333333,20 16.2753623,18.3623188 18.1014493,15.8550725 C16.3768116,15.0144928 13.5507246,13.5942029 11.7971014,12.7536232 C10.9710145,13.7101449 9.73913043,14.6521739 8.34782609,15.057971 C7.47826088,15.3188406 6.68115943,15.4202899 5.86956521,15.2463768 C5.04347826,15.0724638 4.44927535,14.6956522 4.10144928,14.3188406 C3.92753623,14.115942 3.72463768,13.884058 3.56521738,13.5797101 C3.57971014,13.5942029 3.57971014,13.6231884 3.57971014,13.6376812 C3.57971014,13.6376812 3.49275361,13.4927536 3.43478262,13.2608696 C3.40579711,13.1449275 3.3768116,13.0289855 3.36231885,12.9130435 C3.34782609,12.826087 3.34782609,12.7391304 3.36231885,12.6666667 C3.34782609,12.5217391 3.36231885,12.3623188 3.39130436,12.2028986 C3.47826088,11.7971014 3.63768117,11.3478261 4.08695652,10.9275362 C5.04347826,9.98550725 6.33333334,9.94202898 7,9.94202898 C7.98550725,9.95652174 9.69565217,10.3768116 11.1449275,10.8985507 C11.5507246,10.0434783 11.8115942,9.14492754 11.9710145,8.52173912 L5.95652174,8.52173912 L5.95652174,7.86956521 L9.04347826,7.86956521 L9.04347826,6.56521738 L5.31884059,6.56521738 L5.31884059,5.89855072 L9.04347826,5.89855072 L9.04347826,4.59420289 C9.04347826,4.42028984 9.08695652,4.2753623 9.36231885,4.27536232 L10.826087,4.27536232 L10.826087,5.89855072 L14.8695652,5.89855072 L14.8695652,6.55072463 L10.826087,6.55072463 L10.826087,7.85507246 L14.057971,7.85507246 C14.057971,7.85507246 13.7246377,9.66666666 12.7246377,11.4492754 C14.9710145,12.2463768 18.1449275,13.4927536 19.2028986,13.9130435 Z" id="形状" fill="#06B4FD"></path>
                    </g>
                </g>
            </g>
        </g>
    </g>
</svg>