<?xml version="1.0" encoding="UTF-8"?>
<svg width="18px" height="18px" viewBox="0 0 18 18" version="1.1" xmlns="http://www.w3.org/2000/svg" xmlns:xlink="http://www.w3.org/1999/xlink">
    <title>报告</title>
    <g id="页面-1" stroke="none" stroke-width="1" fill="none" fill-rule="evenodd">
        <g id="个人我的订单" transform="translate(-31.000000, -114.000000)" fill-rule="nonzero">
            <g id="个人报告" transform="translate(16.000000, 98.000000)">
                <g id="报告" transform="translate(15.000000, 16.000000)">
                    <g transform="translate(2.500000, 1.593609)">
                        <path d="M1.87500004,0.000140625002 L11.0156252,0.000140625002 C12.0511878,0.000140625002 12.8906253,0.839625018 12.8906253,1.87514066 L12.8906253,13.1251409 C12.8906253,14.1607034 12.0511878,15.0001406 11.0156252,15.0001406 L1.87500004,15.0001406 C0.839484393,15.0001406 0,14.1607034 0,13.1251409 L0,1.87514066 C0,0.839625018 0.839484393,0.000140625002 1.87500004,0.000140625002 Z" id="路径" fill="#DFECFD"></path>
                        <path d="M11.0156252,15.0001406 L1.87500004,15.0001406 C0.841125018,15.0001406 0,14.1590159 0,13.1251409 L0,1.87514066 C0,0.841265643 0.841125018,0.000140625002 1.87500004,0.000140625002 L11.0156252,0.000140625002 C12.0495003,0.000140625002 12.8906253,0.841265643 12.8906253,1.87514066 L12.8906253,13.1251409 C12.8906253,14.1590159 12.0495003,15.0001406 11.0156252,15.0001406 Z M1.87500004,1.40639065 C1.61653128,1.40639065 1.40625003,1.61667191 1.40625003,1.87514066 L1.40625003,13.1251409 C1.40625003,13.3836097 1.61653128,13.5938909 1.87500004,13.5938909 L11.0156252,13.5938909 C11.274094,13.5938909 11.4843752,13.3836097 11.4843752,13.1251409 L11.4843752,1.87514066 C11.4843752,1.61667191 11.274094,1.40639065 11.0156252,1.40639065 L1.87500004,1.40639065 Z" id="形状" fill="#4988FD"></path>
                        <path d="M9.6093752,8.90639081 L6.51562514,8.90639081 C6.12731263,8.90639081 5.81250012,8.5915783 5.81250012,8.2032658 C5.81250012,7.81495329 6.12731263,7.50014078 6.51562514,7.50014078 L9.6093752,7.50014078 C9.99768771,7.50014078 10.3125001,7.81495329 10.3125001,8.2032658 C10.3125001,8.5915783 9.99768771,8.90639081 9.6093752,8.90639081 Z M9.6093752,11.2501409 L3.23437507,11.2501409 C2.84606256,11.2501409 2.53125005,10.9353284 2.53125005,10.5470158 C2.53125005,10.1587033 2.84606256,9.84389083 3.23437507,9.84389083 L9.6093752,9.84389083 C9.99768771,9.84389083 10.3125002,10.1587033 10.3125002,10.5470158 C10.3125002,10.9353284 9.99768771,11.2501409 9.6093752,11.2501409 Z M9.6093752,6.37514076 L6.51562514,6.37514076 C6.12731263,6.37514076 5.81250012,6.06032825 5.81250012,5.67201574 C5.81250012,5.28370324 6.12731263,4.96889073 6.51562514,4.96889073 L9.6093752,4.96889073 C9.99768771,4.96889073 10.3125001,5.28370324 10.3125001,5.67201574 C10.3125001,6.06032825 9.99768771,6.37514076 9.6093752,6.37514076 Z" id="形状" fill="#4988FD"></path>
                        <path d="M9.93534396,3.04443756 L13.1308596,3.04575006 C13.7777347,3.04167194 14.298844,2.5139063 14.2947434,1.86703129 C14.2906409,1.2259219 13.771969,0.707250015 13.1308596,0.70317189 L10.3097346,0.70317189" id="路径" fill="#4988FD"></path>
                        <path d="M13.1310471,3.74887508 L13.1305784,3.74887508 L9.93506271,3.74756258 L9.93562521,2.34131255 L13.1282815,2.34262505 C13.2518719,2.34169452 13.3700071,2.29160005 13.456594,2.2034063 C13.5441149,2.11523399 13.5927264,1.99571395 13.591594,1.87148441 C13.5900003,1.61657816 13.3813128,1.40784378 13.1263596,1.40625003 L10.3097346,1.40625003 L10.3097346,0 L13.1308596,0 C14.1558284,0.00651562514 14.9913284,0.842015643 14.997882,1.86253129 C15.0009847,2.36320317 14.8090316,2.83514068 14.4572347,3.19143757 C14.1054378,3.54773445 13.6359378,3.74568758 13.1353128,3.7488282 L13.1310471,3.74887508 L13.1310471,3.74887508 Z" id="路径" fill="#4988FD"></path>
                        <path d="M10.4492815,3.04575006 L2.6095313,3.04575006 C3.25640632,3.04167194 3.7775157,2.5139063 3.7733907,1.86703129 C3.76935945,1.2259219 3.25064069,0.707250015 2.6095313,0.70317189 L10.730719,0.70317189" id="路径" fill="#4988FD"></path>
                        <path d="M10.4492815,3.74887508 L2.6095313,3.74887508 C2.22206255,3.74887508 1.90762504,3.43542195 1.90640274,3.04795319 C1.90518754,2.66048443 2.2176563,2.34506255 2.60507818,2.34262505 C2.86321881,2.34098442 3.07190631,2.12962504 3.07031256,1.87148441 C3.06867194,1.61657816 2.85998443,1.40789065 2.60507818,1.40625003 C2.21760942,1.40381253 1.90518754,1.08834377 1.90640274,0.70092189 C1.90762504,0.313500007 2.22206255,4.68749996e-05 2.6095313,4.68749996e-05 L10.730719,4.68749996e-05 L10.730719,1.4062969 L4.41679697,1.4062969 C4.45553091,1.55532787 4.47557544,1.70859846 4.47646884,1.86257816 C4.47759735,2.02447896 4.45771258,2.18584181 4.41731259,2.34262505 L10.4492346,2.34262505 L10.4492346,3.74887508 L10.4492815,3.74887508 Z" id="路径" fill="#4988FD"></path>
                    </g>
                </g>
            </g>
        </g>
    </g>
</svg>