<?xml version="1.0" encoding="UTF-8"?>
<svg width="18px" height="18px" viewBox="0 0 18 18" version="1.1" xmlns="http://www.w3.org/2000/svg" xmlns:xlink="http://www.w3.org/1999/xlink">
    <title>慧眼币图标</title>
    <g id="页面-1" stroke="none" stroke-width="1" fill="none" fill-rule="evenodd">
        <g id="我的订单删除" transform="translate(-32.000000, -453.000000)">
            <g id="个人报告" transform="translate(15.000000, 436.000000)">
                <g id="慧眼币图标" transform="translate(17.000000, 17.000000)">
                    <g transform="translate(1.500000, 1.499967)">
                        <g id="编组" fill="#006FFF">
                            <path d="M7.50006667,0 C3.35769651,0 0,3.35800746 0,7.50001667 C0,11.6420259 3.35769651,15.0000333 7.50006667,15.0000333 C11.6421035,15.0000333 15.0001333,11.6420259 15.0001333,7.50001667 C15.0001333,3.35800746 11.6421035,0 7.50006667,0" id="Fill-1"></path>
                        </g>
                        <path d="M9.14828866,10.4502471 C9.0763255,10.1728631 9.29790509,9.90641526 9.58642714,9.92298539 L9.7584693,9.93259607 C9.92348249,9.93259607 10.0105077,9.8381463 10.0105077,9.66614828 L10.0105077,7.63763218 C10.0105077,7.40399325 9.81905223,7.2147623 9.58341473,7.2147623 L8.50831862,7.2147623 C8.27268112,7.2147623 8.08156036,7.40399325 8.08156036,7.63763218 L8.08156036,11.4192687 C8.08156036,11.6529076 7.8904396,11.8421386 7.6548021,11.8421386 L7.58752492,11.8421386 C7.35188741,11.8421386 7.16076665,11.6529076 7.16076665,11.4192687 L7.16076665,7.63763218 C7.16076665,7.40399325 6.96964589,7.2147623 6.73400839,7.2147623 L5.65054448,7.2147623 C5.41490697,7.2147623 5.22378621,7.40399325 5.22378621,7.63763218 L5.22378621,10.3872806 C5.22378621,10.6205881 5.03266545,10.8101505 4.79669324,10.8101505 L4.74749052,10.8101505 C4.51151831,10.8101505 4.32039755,10.6205881 4.32039755,10.3872806 L4.32039755,6.77731069 C4.32039755,6.54400317 4.51151831,6.35477221 4.74749052,6.35477221 L6.73400839,6.35477221 C6.96964589,6.35477221 7.16076665,6.16554126 7.16076665,5.93190233 L7.16076665,5.71847897 C7.16076665,5.47556077 6.95592269,5.28401 6.71091324,5.2969347 C5.97722374,5.33604023 5.20236462,5.35956982 4.37964164,5.36454086 C4.19554984,5.36553507 4.02886308,5.24888131 3.9699537,5.07588908 C3.87690367,4.80314464 4.08308648,4.52277793 4.37361681,4.5191325 C6.75107872,4.49228888 8.80152665,4.3004067 10.530316,3.95574786 C10.7097218,3.92028777 10.8887929,3.99982442 10.9805041,4.15624651 L10.9938926,4.1787819 C11.1415008,4.42899096 10.9975745,4.74713758 10.7110607,4.80645867 C10.0329334,4.94664202 9.28451659,5.06263297 8.46480602,5.15310592 C8.24858183,5.17729832 8.08156036,5.3569186 8.08156036,5.57266177 L8.08156036,5.93190233 C8.08156036,6.16554126 8.27268112,6.35477221 8.50831862,6.35477221 L10.4868034,6.35477221 C10.7227756,6.35477221 10.9138964,6.54400317 10.9138964,6.77731069 L10.9138964,9.86399571 C10.9138964,10.483056 10.6267132,10.7929176 10.0623881,10.7929176 L9.56835267,10.7929176 C9.37355008,10.7929176 9.2035162,10.6620135 9.15498291,10.4754337 L9.14828866,10.4502471 Z" id="Fill-3" fill="#FFFFFF"></path>
                    </g>
                </g>
            </g>
        </g>
    </g>
</svg>