<?xml version="1.0" encoding="UTF-8"?>
<svg width="23px" height="23px" viewBox="0 0 23 23" version="1.1" xmlns="http://www.w3.org/2000/svg" xmlns:xlink="http://www.w3.org/1999/xlink">
    <title>注销账号</title>
    <g id="页面-1" stroke="none" stroke-width="1" fill="none" fill-rule="evenodd">
        <g id="苹果A面我的界面" transform="translate(-15.000000, -464.000000)" fill="#1B7CF6">
            <g id="我的搜藏" transform="translate(15.000000, 464.000000)">
                <g id="编组" transform="translate(0.999943, 3.000000)">
                    <path d="M9.03855744,9.92842227 C9.29055744,9.93942227 9.53555744,9.84442227 9.71555744,9.66742227 C9.90655744,9.49442227 10.0125574,9.24742227 10.0055574,8.99042227 L10.0055574,0.96742227 C10.0105574,0.71242227 9.90855744,0.46742227 9.72455744,0.29042227 C9.54955744,0.0984222701 9.29855744,-0.00757772993 9.03855744,0.000422270067 C8.78955744,-0.00357772993 8.55055744,0.0984222701 8.38155744,0.28042227 C8.19355744,0.45842227 8.08955744,0.70842227 8.09555744,0.96742227 L8.09555744,8.99042227 C8.09855744,9.50942227 8.51955744,9.92842227 9.03855744,9.92842227" id="Fill-1"></path>
                    <path d="M17.8452574,8.10132227 C17.6732574,7.40132227 17.4152574,6.72632227 17.0762574,6.09032227 C16.7382574,5.45432227 16.3292574,4.85732227 15.8582574,4.31132227 C15.3792574,3.76432227 14.8362574,3.27732227 14.2392574,2.86232227 C14.0312574,2.71332227 13.7702574,2.65732227 13.5192574,2.70732227 C13.2732574,2.73332227 13.0492574,2.86332227 12.9052574,3.06432227 C12.7562574,3.27332227 12.6982574,3.53332227 12.7452574,3.78532227 C12.7822574,4.03632227 12.9272574,4.25932227 13.1422574,4.39332227 C14.0962574,5.04932227 14.8742574,5.93132227 15.4042574,6.96032227 C15.9372574,7.97932227 16.2142574,9.11232227 16.2112574,10.2623223 C16.2162574,11.2213223 16.0222574,12.1703223 15.6412574,13.0503223 C14.9052574,14.7663223 13.5382574,16.1333223 11.8232574,16.8693223 C10.0422574,17.6333223 8.02525744,17.6333223 6.24425744,16.8693223 C4.52625744,16.1403223 3.15825744,14.7703223 2.43125744,13.0503223 C1.62825744,11.1133223 1.69825744,8.92432227 2.62425744,7.04232227 C3.12925744,6.03832227 3.86825744,5.17132227 4.78025744,4.51532227 C4.99725744,4.36532227 5.14025744,4.12932227 5.17225744,3.86732227 C5.21825744,3.62232227 5.15425744,3.37032227 4.99725744,3.17632227 C4.68025744,2.75932227 4.08825744,2.67132227 3.66325744,2.97732227 C3.10125744,3.40632227 2.58425744,3.89232227 2.12225744,4.42832227 C1.67125744,4.96032227 1.28425744,5.54432227 0.97125744,6.16732227 C0.65825744,6.79432227 0.41625744,7.45432227 0.25125744,8.13532227 C-0.19974256,10.0143223 -0.0407425599,11.9883223 0.70525744,13.7703223 C1.15525744,14.8543223 1.81125744,15.8393223 2.63925744,16.6713223 C3.47625744,17.4913223 4.46025744,18.1463223 5.53925744,18.6043223 C7.78825744,19.5583223 10.3272574,19.5583223 12.5762574,18.6043223 C14.7492574,17.6753223 16.4812574,15.9443223 17.4102574,13.7703223 C17.8922574,12.6573223 18.1372574,11.4553223 18.1304033,10.2423223 C18.1212574,9.51932227 18.0252574,8.80132227 17.8452574,8.10132227" id="Fill-3"></path>
                </g>
            </g>
        </g>
    </g>
</svg>