<?xml version="1.0" encoding="UTF-8"?>
<svg width="181px" height="109px" viewBox="0 0 181 109" version="1.1" xmlns="http://www.w3.org/2000/svg" xmlns:xlink="http://www.w3.org/1999/xlink">
    <title>注销图案</title>
    <defs>
        <polygon id="path-1" points="0 0 181 0 181 1.95099822 0 1.95099822"></polygon>
    </defs>
    <g id="页面-1" stroke="none" stroke-width="1" fill="none" fill-rule="evenodd">
        <g id="注销账号" transform="translate(-97.000000, -166.000000)">
            <g id="注销图案" transform="translate(97.000000, 166.000000)">
                <g id="编组" transform="translate(19.000000, 14.000000)">
                    <path d="M47.5919543,58.8733015 L80.3458003,58.8733015 L80.3458003,54.6453882 L47.5919543,54.6453882 L47.5919543,58.8733015 Z M47.5919543,67.3310855 L80.3458003,67.3310855 L80.3458003,63.1012148 L47.5919543,63.1012148 L47.5919543,67.3310855 Z M47.5919543,75.7888695 L80.3458003,75.7888695 L80.3458003,71.5589988 L47.5919543,71.5589988 L47.5919543,75.7888695 Z M9.55680744,80.0167828 C9.55680744,75.450245 11.5421854,63.6942971 23.2490691,63.1012148 C18.7580073,62.6725514 15.395579,58.7891347 15.6087871,54.2793605 C15.8239512,49.7695863 19.5404222,46.2228368 24.0530005,46.2228368 C28.5636227,46.2228368 32.2800937,49.7695863 32.4952578,54.2793605 C32.7104219,58.7891347 29.3460376,62.6725514 24.8549758,63.1012148 C36.5618595,63.6101303 38.5472375,75.3641208 38.5472375,80.0167828 L9.55680744,80.0167828 Z M94.3236434,67.9965904 C94.3236434,53.1049401 106.388482,41.0299414 121.270014,41.0299414 C128.305881,41.0299414 134.711903,43.7311082 139.510063,48.1508436 L139.510063,37.8531343 L0.0485097271,38.0234253 L0.0485097271,84.542216 C0.0485097271,89.2144517 3.83148602,93 8.50054725,93 L111.167081,93 C101.291049,89.0010987 94.3236434,79.314088 94.3236434,67.9965904 L94.3236434,67.9965904 Z" id="Fill-1" fill="#EAEAEA"></path>
                    <path d="M96.5396382,67.9971776 C96.5396382,76.8386056 101.251732,85.0086566 108.90375,89.4303493 C116.555769,93.8500846 125.983869,93.8500846 133.633931,89.4303493 C141.285949,85.0086566 146.001955,76.8386056 146,67.9971776 C146.001955,59.1537922 141.285949,50.9837412 133.633931,46.5640059 C125.983869,42.1423132 116.555769,42.1423132 108.90375,46.5640059 C101.251732,50.9837412 96.5396382,59.1537922 96.5396382,67.9971776" id="Fill-3" fill="#D8D8D8"></path>
                    <path d="M140.566714,29.2694916 L140.566714,9.43744633 C140.566714,4.76521064 136.781782,0.979662323 132.114677,0.979662323 L9.43005622,0.979662323 C4.76099499,0.979662323 0.978018691,4.76521064 0.978018691,9.43744633 L0.978018691,29.2694916 L140.566714,29.2694916 Z" id="Fill-4" fill="#E5E5E5"></path>
                    <path d="M21.2102913,0.979466586 L9.43103424,0.979466586 C4.76197301,0.979466586 0.977040672,4.76697227 0.977040672,9.43725059 L0.977040672,29.2692959 L12.7582538,29.2692959 L12.7582538,9.43725059 C12.7582538,4.76697227 16.5412301,0.979466586 21.2102913,0.979466586" id="Fill-5" fill="#D6D6D6"></path>
                    <path d="M86.7786204,30.2491539 L77.3505202,30.2491539 C77.0003895,30.2491539 76.6756873,30.063204 76.5016,29.7598121 C76.3275127,29.4564202 76.3275127,29.082563 76.5016,28.7811285 C76.6756873,28.4757792 77.0003895,28.2898293 77.3505202,28.2898293 L86.7786204,28.2898293 C87.1287511,28.2898293 87.4514973,28.4757792 87.6275406,28.7811285 C87.801628,29.082563 87.801628,29.4564202 87.6275406,29.7598121 C87.4514973,30.063204 87.1287511,30.2491539 86.7786204,30.2491539" id="Fill-6" fill="#D3D3D3"></path>
                    <path d="M140.566714,30.2491539 C140.306561,30.2491539 140.058145,30.1454134 139.874277,29.9633783 C139.69041,29.7793858 139.58674,29.5288428 139.58674,29.2704703 L139.58674,9.43646765 C139.58674,7.43995302 138.812149,5.56088044 137.39989,4.14961863 C135.987631,2.73639945 134.109835,1.95932465 132.114677,1.95932465 L9.43005622,1.95932465 C5.31064149,1.95932465 1.95799342,5.31425216 1.95799342,9.43646765 L1.95799342,28.2898293 L71.2936505,28.2898293 C71.6437812,28.2898293 71.9665273,28.4777365 72.1425707,28.7811285 C72.316658,29.082563 72.316658,29.4564202 72.1425707,29.7598121 C71.9665273,30.063204 71.6437812,30.2491539 71.2936505,30.2491539 L0.978018691,30.2491539 C0.438152373,30.2491539 0,29.8107036 0,29.2704703 L0,9.43646765 C0,4.23182805 4.22895282,0 9.43005622,0 L132.114677,0 C134.634053,0 137.002814,0.980641006 138.782808,2.7638026 C140.564758,4.54696419 141.546689,6.91537859 141.546689,9.43646765 L141.546689,29.2704703 C141.546689,29.5288428 141.443019,29.7793858 141.259152,29.9633783 C141.075284,30.1454134 140.826867,30.2491539 140.566714,30.2491539" id="Fill-7" fill="#D3D3D3"></path>
                    <path d="M9.55622063,80.0175658 C9.55622063,75.4510279 11.5435546,63.6950801 23.2484823,63.1000404 C18.7574205,62.6733343 15.3949922,58.7899177 15.6101563,54.2801435 C15.8253204,49.7703692 19.5398354,46.2236197 24.0524137,46.2236197 C28.5649919,46.2236197 32.2795069,49.7703692 32.496627,54.2801435 C32.7098351,58.7899177 29.3474069,62.6733343 24.856345,63.1000404 C36.5612727,63.6089559 38.5486067,75.3649038 38.5486067,80.0175658 L9.55622063,80.0175658 Z" id="Fill-8" fill="#C9C9C9"></path>
                    <polygon id="Fill-9" fill="#FFFFFF" points="47.5919543 75.7888695 80.3458003 75.7888695 80.3458003 71.5589988 47.5919543 71.5589988"></polygon>
                    <polygon id="Fill-10" fill="#FFFFFF" points="47.5919543 67.3310855 80.3458003 67.3310855 80.3458003 63.1012148 47.5919543 63.1012148"></polygon>
                    <polygon id="Fill-11" fill="#FFFFFF" points="47.5919543 58.8733015 80.3458003 58.8733015 80.3458003 54.6453882 47.5919543 54.6453882"></polygon>
                </g>
                <g id="编组" transform="translate(0.000000, 51.000000)">
                    <path d="M22.1004634,54.3979622 C21.8397754,54.3979622 21.5908477,54.2946626 21.406602,54.111452 C19.6209872,52.3358682 18.6370369,49.9755697 18.6370369,47.4671434 L18.6370369,1.14409186 C18.6370369,0.606154291 19.0780505,0.169567277 19.617067,0.169567277 L159.367403,0 L159.369363,0 C159.91034,0.00194904917 160.351353,0.436587013 160.351353,0.976473632 L160.351353,11.2284722 C160.351353,11.7664098 159.91034,12.2049459 159.369363,12.2049459 C158.826426,12.2049459 158.387373,11.7664098 158.387373,11.2284722 L158.387373,1.95294726 L20.6010173,2.11861644 L20.6010173,47.4651944 C20.6010173,49.4551735 21.3791612,51.3243117 22.7943247,52.7315252 C23.0746133,53.0102392 23.1588959,53.4292848 23.0060112,53.793757 C22.8550866,54.1582292 22.4983556,54.3979622 22.1004634,54.3979622" id="Fill-12" fill="#D3D3D3"></path>
                    <g transform="translate(0.000000, 56.049002)">
                        <mask id="mask-2" fill="white">
                            <use xlink:href="#path-1"></use>
                        </mask>
                        <g id="Clip-15"></g>
                        <path d="M4.60927769,1.95099822 L0.9596455,1.95099822 C0.608794715,1.95099822 0.285384773,1.76583854 0.10897935,1.46373592 C-0.0654660124,1.1616333 -0.0654660124,0.789364912 0.10897935,0.487262292 C0.285384773,0.185159671 0.608794715,0 0.9596455,0 L4.60927769,0 C4.96012848,0 5.28353842,0.185159671 5.45994384,0.487262292 C5.6343892,0.789364912 5.6343892,1.1616333 5.45994384,1.46373592 C5.28353842,1.76583854 4.96012848,1.95099822 4.60927769,1.95099822 M160.426228,1.95099822 L9.52706887,1.95099822 C9.17621808,1.95099822 8.85280814,1.76583854 8.67640272,1.46373592 C8.50195735,1.1616333 8.50195735,0.789364912 8.67640272,0.487262292 C8.85280814,0.185159671 9.17621808,0 9.52706887,0 L160.426228,0 C160.775118,0 161.098528,0.185159671 161.274934,0.487262292 C161.451339,0.789364912 161.451339,1.1616333 161.274934,1.46373592 C161.098528,1.76583854 160.775118,1.95099822 160.426228,1.95099822 M180.01899,1.95099822 L168.676121,1.95099822 C168.32527,1.95099822 167.9999,1.76583854 167.825455,1.46373592 C167.64905,1.1616333 167.64905,0.789364912 167.825455,0.487262292 C167.9999,0.185159671 168.32527,0 168.676121,0 L180.01899,0 C180.369841,0 180.693251,0.185159671 180.867696,0.487262292 C181.044101,0.789364912 181.044101,1.1616333 180.867696,1.46373592 C180.693251,1.76583854 180.369841,1.95099822 180.01899,1.95099822" id="Fill-14" fill="#D3D3D3" mask="url(#mask-2)"></path>
                    </g>
                </g>
                <g id="编组" transform="translate(1.000000, 0.000000)">
                    <path d="M8.08822384,93.6560886 C8.08822384,95.9912849 6.50504285,97.8280443 4.54669117,97.8280443 C6.51093558,97.8280443 8.08822384,99.6962013 8.08822384,102 C8.08822384,99.6648037 9.67140483,97.8280443 11.6277923,97.8280443 C9.6655121,97.8280443 8.08822384,95.9598873 8.08822384,93.6560886 L8.08822384,93.6560886 Z M171.644963,97.877103 L170.466416,97.877103 L170.466416,96.6996931 C170.466416,96.5034582 170.305348,96.3445078 170.110888,96.3445078 C169.914464,96.3445078 169.75536,96.5034582 169.75536,96.6996931 L169.75536,97.877103 L168.576813,97.877103 C168.380389,97.877103 168.221285,98.0360534 168.221285,98.2322883 C168.221285,98.4285233 168.380389,98.5855113 168.576813,98.5855113 L169.75536,98.5855113 L169.75536,99.7648836 C169.75536,99.8590763 169.79268,99.9473821 169.859465,100.014102 C169.924285,100.07886 170.01464,100.116144 170.108924,100.116144 L170.112852,100.102408 C170.305348,100.100445 170.466416,99.9434574 170.466416,99.7491848 L170.466416,98.5874737 L171.644963,98.5874737 C171.772639,98.5874737 171.888529,98.5187914 171.951385,98.4088998 C172.016205,98.2990082 172.016205,98.1636061 171.951385,98.0537145 C171.888529,97.9457853 171.772639,97.877103 171.644963,97.877103 L171.644963,97.877103 Z M16.8369684,8.54112758 C16.6012591,8.54112758 16.4107274,8.35077965 16.4107274,8.11529767 L16.4107274,5.35819618 L14.4621969,7.30680955 C14.2893434,7.46968458 14.0182777,7.46575988 13.8513169,7.29896015 C13.6823919,7.13019806 13.6784634,6.85939379 13.84346,6.68866935 L15.7919904,4.74005598 L13.0282985,4.74005598 C12.8750875,4.74005598 12.7336619,4.65959964 12.6570563,4.5281222 C12.5804508,4.39468242 12.5804508,4.23180738 12.6570563,4.09836759 C12.7336619,3.96492781 12.8750875,3.88447146 13.0282985,3.88447146 L15.7919904,3.88447146 L13.84346,1.96136864 C13.7531047,1.88287465 13.7000701,1.77102071 13.7000701,1.65327972 C13.7000701,1.53357638 13.7531047,1.41976009 13.84346,1.34322845 C13.9200655,1.25296036 14.0320274,1.20193926 14.1518463,1.20193926 C14.269701,1.20193926 14.3836272,1.25296036 14.4621969,1.34322845 L16.4107274,3.27025597 L16.4107274,0.515116827 C16.3734067,0.344392393 16.4441195,0.169743259 16.5894736,0.0735881182 C16.7328635,-0.0245293727 16.9214309,-0.0245293727 17.0648208,0.0735881182 C17.2101749,0.169743259 17.2789234,0.344392393 17.2455313,0.515116827 L17.2455313,3.27025597 L19.2117399,1.32360495 C19.2883454,1.23529921 19.4022716,1.18231577 19.5201263,1.18231577 C19.6399452,1.18231577 19.7519071,1.23529921 19.8304769,1.32360495 C19.9208321,1.40209894 19.9719025,1.51395288 19.9719025,1.63365622 C19.9719025,1.75139721 19.9208321,1.8652135 19.8304769,1.94174514 L17.8799822,3.89035851 L20.6397456,3.89035851 C20.8774192,3.89035851 21.0679509,4.08070645 21.0679509,4.31815077 C21.0679509,4.55363275 20.8774192,4.74594303 20.6397456,4.74594303 L17.8799822,4.74594303 L19.8304769,6.69259405 C19.9404746,6.80248564 19.983688,6.96339833 19.9424388,7.11449926 C19.9031539,7.2656002 19.7852993,7.38334119 19.6340525,7.42455054 C19.4828056,7.46379753 19.3217376,7.42062584 19.2117399,7.31073425 L17.243567,5.35819618 L17.243567,8.11529767 C17.2907089,8.35470435 17.0510711,8.54112758 16.817326,8.54112758 L16.8369684,8.54112758 Z M164.037444,8.97284454 C163.236033,9.39082505 162.263732,9.28289581 161.570353,8.70204027 C161.104827,8.33900555 160.816083,7.7895476 160.788584,7.19691796 C160.729657,6.60625066 160.910367,6.01558337 161.289466,5.55835586 C161.654816,5.08935425 162.206768,4.80481353 162.79997,4.77537828 L163.000323,4.77537828 C164.157263,4.76556653 165.1276,5.6466616 165.225812,6.79856094 C165.30831,7.69731716 164.836892,8.55682638 164.037444,8.97284454 L164.037444,8.97284454 Z M165.71098,6.77108805 C165.575448,5.26204104 164.241726,4.14742634 162.729257,4.28282848 C162.012308,4.36132247 161.350358,4.71062074 160.882868,5.26007869 C160.411449,5.81149899 160.191454,6.53168137 160.268059,7.25186375 C160.350557,7.97008378 160.706086,8.63139567 161.261967,9.09647258 C161.737314,9.52622719 162.35998,9.76170917 163.002287,9.74993507 L163.218354,9.74993507 C164.730823,9.61453293 165.846513,8.28209741 165.71098,6.77108805 L165.71098,6.77108805 Z M2.73369359,43.1648278 C2.15620573,43.4650673 1.45300623,43.3885356 0.952123911,42.9685928 C0.614273873,42.7056379 0.408028211,42.3072809 0.386421522,41.881451 C0.34517239,41.4536587 0.47481252,41.0278288 0.749806737,40.6961917 C1.01301549,40.3586675 1.4117571,40.1506584 1.84192663,40.1310349 L1.98531647,40.1310349 C2.82208459,40.1231855 3.52135559,40.7609492 3.59206839,41.5929856 C3.65295997,42.2425234 3.31314569,42.8626259 2.73369359,43.1648278 L2.73369359,43.1648278 Z M3.94563239,41.5713997 C3.84742017,40.4803332 2.88297616,39.6757698 1.78889203,39.7738873 C1.2703315,39.8307954 0.793020114,40.0819762 0.455170076,40.4803332 C0.115355794,40.8786902 -0.0457122473,41.4006753 0.0112508405,41.920698 C0.0682139283,42.4407207 0.325529945,42.9175717 0.728200049,43.2531335 C1.07194282,43.5651471 1.52175479,43.7339092 1.98728071,43.7260598 L2.14442027,43.7260598 C3.23654016,43.6279423 4.04188036,42.6644286 3.94563239,41.5713997 L3.94563239,41.5713997 Z" id="Fill-16" fill="#D6D6D6"></path>
                    <path d="M160.465859,82.0974557 C160.465859,83.3926066 159.414988,84.4405014 158.120551,84.4405014 L123.035217,84.4405014 C121.74078,84.4405014 120.689909,83.3906442 120.689909,82.0974557 C120.689909,80.8023048 121.74078,79.75441 123.035217,79.75441 L158.120551,79.75441 C159.414988,79.75441 160.465859,80.8023048 160.465859,82.0974557" id="Fill-18" fill="#FFFFFF"></path>
                </g>
            </g>
        </g>
    </g>
</svg>