<?xml version="1.0" encoding="UTF-8"?>
<svg width="23px" height="23px" viewBox="0 0 23 23" version="1.1" xmlns="http://www.w3.org/2000/svg"
    xmlns:xlink="http://www.w3.org/1999/xlink">
    <title>企业认证</title>
    <g id="页面-1" stroke="none" stroke-width="1" fill="none" fill-rule="evenodd">
        <g id="苹果A面我的界面" transform="translate(-14.000000, -216.000000)" fill="#1B7CF6"
            stroke="#1B7CF6" stroke-width="0.3">
            <g id="编组-2" transform="translate(14.000000, 216.000000)">
                <g id="Fill-1" transform="translate(2.000000, 0.986667)">
                    <path
                        d="M9.03056811,0.00239633196 C9.1471534,0.00576873982 9.25727236,0.0380998978 9.35654653,0.101072335 C9.36387701,0.105922812 9.49948084,0.196643681 9.74108814,0.344024776 L9.94182129,0.464727981 C11.1879942,1.20374166 14.2482923,2.83427851 17.4131541,3.11400175 C17.7458766,3.1443732 18,3.4226413 18,3.75960017 L18,11.7025538 C17.6269599,15.288026 12.9810629,19.9664598 9.12074934,20.7076873 C9.08043168,20.7158958 9.04011403,20.72 8.99776013,20.72 C8.92719672,20.7191835 8.85934084,20.7068841 8.79593941,20.6848722 L8.87884341,20.7019413 C5.01893708,19.9623556 0.372632865,15.2818697 0.00162899613,11.7637072 L0,3.75590634 C0,3.41853705 0.253716147,3.13821682 0.586438607,3.10948708 C4.50374854,2.76042067 8.24480126,0.35531362 8.61186926,0.114186121 L8.64100998,0.0949159615 L8.64100998,0.0949159615 C8.76269599,0.0202186241 8.8989778,-0.00903646491 9.03056811,0.00239633196 Z M8.99539177,1.40371705 L8.91857589,1.45234396 C7.79691885,2.14078879 4.70122601,3.87492957 1.28364895,4.33460549 L1.28364895,11.6963975 C1.56089579,14.2874279 5.48347793,18.6546597 9.00872141,19.4073126 L8.87680717,19.4341387 C12.4304622,18.7536542 16.4337202,14.3210649 16.71798,11.6336025 L16.7139076,4.34076187 C13.2067553,3.86880889 10.0374885,2.05197177 8.99539177,1.40371705 Z M13.5915292,7.19075259 C13.8313989,7.44275349 13.8313989,7.83881355 13.5915292,8.09081446 L8.19140705,13.533049 C8.14384036,13.5808225 8.08917125,13.6205845 8.02971941,13.6511004 L7.93737487,13.6896541 C7.90548239,13.7002003 7.87271676,13.708248 7.83935166,13.713659 L7.73773162,13.7218445 L7.73773162,13.7218445 C7.70405172,13.7218445 7.67097394,13.7192248 7.63868758,13.7141769 L7.73773162,13.7218445 C7.6940978,13.7218445 7.65096752,13.7174642 7.60891547,13.7089216 C7.58799716,13.7044953 7.56732974,13.699135 7.54708972,13.6927919 C7.53083986,13.6881079 7.51469078,13.6823998 7.49879765,13.6760545 C7.48489818,13.6698591 7.47109836,13.6636923 7.45756336,13.6570604 C7.44078928,13.6497632 7.42460975,13.6410543 7.40880698,13.6316456 C7.39983,13.6250831 7.39060556,13.6192057 7.38154326,13.6131024 C7.34585677,13.5906569 7.31280609,13.5635617 7.2824272,13.533049 L4.40806353,10.6321656 C4.16208512,10.3740083 4.16819385,9.96358342 4.42435349,9.71609719 C4.6744044,9.4743569 5.06699247,9.4743569 5.31704337,9.71609719 L7.738,12.157 L12.6825494,7.17474601 C12.938709,6.92684936 13.3459581,6.93259531 13.5915292,7.19075259 Z"></path>
                </g>
            </g>
        </g>
    </g>
</svg>