<?xml version="1.0" encoding="UTF-8"?>
<svg width="12px" height="13px" viewBox="0 0 12 13" version="1.1" xmlns="http://www.w3.org/2000/svg" xmlns:xlink="http://www.w3.org/1999/xlink">
    <title>删除</title>
    <g id="页面-1" stroke="none" stroke-width="1" fill="none" fill-rule="evenodd">
        <g id="苹果AB面搜索页" transform="translate(-347.000000, -110.000000)" fill="#999999" fill-rule="nonzero">
            <g id="删除" transform="translate(347.000000, 110.000000)">
                <path d="M11.5717881,1.51666667 L8.99908955,1.51666667 L8.99908955,0.433333333 C8.99908955,0.194009942 8.80727667,0 8.57066349,0 L3.42955067,0 C3.19293749,0 3.00112461,0.194009942 3.00112461,0.433333333 L3.00112461,1.51666667 L0.428426068,1.51666667 C0.191812884,1.51666667 0,1.71067661 0,1.95 C0,2.18932339 0.191812884,2.38333333 0.428426068,2.38333333 L0.880415569,2.38333333 L1.92363304,11.8443 C1.99628878,12.5022624 2.54621496,13 3.20077115,13 L8.79901458,13 C9.45365989,13 10.0037216,12.50233 10.0765811,11.8443 L11.1197986,2.38333333 L11.5713597,2.38333333 C11.7244216,2.38341074 11.8658974,2.3008894 11.9424946,2.16685431 C12.0190919,2.03281921 12.0191735,1.86763348 11.9427088,1.73352097 C11.8662442,1.59940847 11.72485,1.51674407 11.5717881,1.51666667 Z M3.85797674,0.866666667 L8.14223742,0.866666667 L8.14223742,1.51666667 L3.85797674,1.51666667 L3.85797674,0.866666667 Z M9.22529852,11.7481 C9.20107389,11.9674756 9.01768295,12.1333333 8.79944301,12.1333333 L3.20077115,12.1333333 C2.98253121,12.1333333 2.79914027,11.9674756 2.77491564,11.7481 L1.74240882,2.38333333 L10.2578053,2.38333333 L9.22529852,11.7481 L9.22529852,11.7481 Z M7.28538528,10.6834 C7.52199847,10.6834 7.71381135,10.4893901 7.71381135,10.2500667 L7.71381135,3.88786667 C7.71381135,3.64854328 7.52199847,3.45453333 7.28538528,3.45453333 C7.0487721,3.45453333 6.85695922,3.64854328 6.85695922,3.88786667 L6.85695922,10.2500667 C6.85695922,10.4893901 7.0487721,10.6834 7.28538528,10.6834 Z M4.92904191,10.6834 C5.16565509,10.6834 5.35746798,10.4893901 5.35746798,10.2500667 L5.35746798,3.88786667 C5.35746798,3.64854328 5.16565509,3.45453333 4.92904191,3.45453333 C4.69242873,3.45453333 4.50061584,3.64854328 4.50061584,3.88786667 L4.50061584,10.2500667 C4.50061584,10.4893901 4.69242873,10.6834 4.92904191,10.6834 Z" id="形状"></path>
            </g>
        </g>
    </g>
</svg>