<?xml version="1.0" encoding="UTF-8"?>
<svg width="30px" height="30px" viewBox="0 0 30 30" version="1.1" xmlns="http://www.w3.org/2000/svg" xmlns:xlink="http://www.w3.org/1999/xlink">
    <title>删除按钮</title>
    <g id="页面-1" stroke="none" stroke-width="1" fill="none" fill-rule="evenodd">
        <g id="我的订单删除" transform="translate(-329.000000, -154.000000)">
            <g id="VIP" transform="translate(16.000000, 98.000000)">
                <g id="删除按钮" transform="translate(313.000000, 56.000000)">
                    <circle id="椭圆形" fill="#FF2D28" cx="15" cy="15" r="15"></circle>
                    <g id="删除" transform="translate(7.000000, 7.000000)" fill="#FFFFFF" fill-rule="nonzero">
                        <rect id="矩形" opacity="0" x="0" y="4.35708424e-06" width="15.6872076" height="15.6872076"></rect>
                        <path d="M0.655924171,3.52417876 L1.81421801,3.52417876 L1.81421801,12.8132783 C1.81321184,13.5748157 2.11489649,14.3055345 2.65285161,14.8445563 C3.19080672,15.3835781 3.92092658,15.6867096 4.68246445,15.6872119 L11.3175355,15.6872119 C12.901191,15.6861663 14.1847363,14.4026209 14.185782,12.8189655 L14.185782,3.52986597 L15.3440758,3.52986597 C15.7063327,3.52986597 16,3.23619871 16,2.8739418 C16,2.51168488 15.7063327,2.21801763 15.3440758,2.21801763 L10.8682464,2.21801763 L10.8682464,1.76114558 C10.867242,1.293057 10.6803306,0.844539256 10.348631,0.514261685 C10.0169313,0.183984113 9.56761466,-0.000998498362 9.09952608,4.05398814e-06 L6.89478673,4.05398814e-06 C5.92226223,0.00105049917 5.1338422,0.788622772 5.13175355,1.76114558 L5.13175355,2.21233042 L0.655924171,2.21233042 C0.29366726,2.21233042 1.38225677e-08,2.50599768 1.38225677e-08,2.86825459 C1.38225677e-08,3.2305115 0.29366726,3.52417875 0.655924171,3.52417876 Z M6.44549763,2.21233042 L6.44549763,1.76114558 C6.44654152,1.51270373 6.64823843,1.3118543 6.89668247,1.3118565 L9.09952608,1.3118565 C9.21951543,1.31084711 9.33496429,1.35767636 9.42034452,1.44198934 C9.50572476,1.52630233 9.55400244,1.64115303 9.55450237,1.76114558 L9.55450237,2.21233042 L6.44549763,2.21233042 Z M3.12985783,12.8284442 L3.12985783,3.53934464 L12.8720379,3.53934464 L12.8720379,12.8284442 C12.8720379,13.6872793 12.1763701,14.3837962 11.3175355,14.3848423 L4.68246445,14.3848423 C4.26836312,14.3843456 3.87153209,14.2188455 3.57978732,13.924966 C3.28804255,13.6310865 3.12543986,13.2330595 3.12793318,12.8189655 L3.12985783,12.8284442 Z" id="形状"></path>
                        <path d="M8,12.3696764 C8.36225692,12.3696764 8.65592417,12.0760091 8.65592417,11.7137522 L8.65592417,5.45782806 C8.65592417,5.22348891 8.53090574,5.00695061 8.32796209,4.88978104 C8.12501844,4.77261146 7.87498156,4.77261146 7.67203791,4.88978104 C7.46909426,5.00695061 7.34407583,5.22348891 7.34407583,5.45782806 L7.34407583,11.7137522 C7.34407583,11.8877141 7.41318193,12.054551 7.53619157,12.1775607 C7.65920121,12.3005703 7.82603809,12.3696764 8,12.3696764 L8,12.3696764 Z M5.05023697,11.6322356 C5.41280183,11.6322356 5.70701202,11.3388748 5.70805687,10.9763115 L5.70805687,6.18579014 C5.68929684,5.836707 5.4007717,5.56327111 5.05118484,5.56327111 C4.70159797,5.56327111 4.41307283,5.836707 4.3943128,6.18579014 L4.3943128,10.9763115 C4.39535403,11.3381362 4.68841222,11.6311944 5.05023697,11.6322356 L5.05023697,11.6322356 Z M10.5800948,11.6322356 C10.9423517,11.6322356 11.236019,11.3385684 11.236019,10.9763115 L11.236019,6.18579014 C11.236019,5.82353322 10.9423517,5.52986596 10.5800948,5.52986596 C10.2178379,5.52986596 9.92417062,5.82353322 9.92417062,6.18579014 L9.92417062,10.9763115 C9.92417062,11.3385684 10.2178379,11.6322356 10.5800948,11.6322356 L10.5800948,11.6322356 Z" id="形状"></path>
                    </g>
                </g>
            </g>
        </g>
    </g>
</svg>