<?xml version="1.0" encoding="UTF-8"?>
<svg width="23px" height="23px" viewBox="0 0 23 23" version="1.1" xmlns="http://www.w3.org/2000/svg" xmlns:xlink="http://www.w3.org/1999/xlink">
    <title>我的搜藏</title>
    <g id="页面-1" stroke="none" stroke-width="1" fill="none" fill-rule="evenodd">
        <g id="苹果A面我的界面备份" transform="translate(-15.000000, -365.000000)" fill="#1B7CF6">
            <g id="我的搜藏" transform="translate(15.000000, 365.000000)">
                <g id="编组" transform="translate(0.999800, 2.999700)">
                    <path d="M16.7896439,6.01689853 C16.3622332,6.01689853 16.0165054,6.36262633 16.0165054,6.79003708 L16.0165054,17.6500692 L1.55292571,17.6500692 L1.55292571,2.14265756 L13.054074,2.14265756 C13.4824345,2.14265756 13.8281623,1.79408035 13.8281623,1.36856921 C13.8281623,0.941158464 13.4824345,0.59543066 13.054074,0.59543066 L0.847223079,0.59543066 C0.380870465,0.59543066 0,0.963003902 0,1.41605929 L0,18.3823663 C0,18.8354217 0.380870465,19.202995 0.847223079,19.202995 L16.7165092,19.202995 C17.1828618,19.202995 17.5627825,18.8354217 17.5627825,18.3823663 L17.5627825,6.79003708 C17.5627825,6.36262633 17.2170547,6.01689853 16.7896439,6.01689853" id="Fill-1"></path>
                    <g transform="translate(3.084196, 0.000000)" id="Fill-3">
                        <path d="M0.00284940498,13.2535323 C0.00284940498,13.6780937 0.258346051,14.0228717 0.575579805,14.0228717 L10.2825528,14.0228717 C10.5969371,14.0228717 10.8543334,13.6780937 10.8543334,13.2535323 C10.8543334,12.828971 10.5969371,12.4822934 10.2825528,12.4822934 L0.575579805,12.4822934 C0.260245654,12.4851428 0.00284940498,12.828971 0.00284940498,13.2535323 M5.61617721,6.80342928 L0.590776632,6.80342928 C0.264994663,6.80342928 0.00284940498,7.14725748 0,7.57276862 C0,7.99732997 0.264994663,8.34020836 0.590776632,8.34020836 L5.6133278,8.34020836 C5.93910977,8.34020836 6.20315463,7.99732997 6.20315463,7.57276862 C6.20315463,7.14725748 5.94195918,6.80342928 5.61617721,6.80342928 M15.6489321,0.18901053 C15.5235583,0.0626869095 15.3497446,0 15.1664329,0 C14.9061872,0 14.6212467,0.120624811 14.3923445,0.348577209 L8.28417007,6.46055088 C7.89095218,6.85091936 7.81876725,7.41510155 8.12365359,7.71903808 C8.24997721,7.8453617 8.4199917,7.90804861 8.60710263,7.90804861 C8.86639848,7.90804861 9.15228878,7.7874238 9.38024118,7.5594714 L15.4893654,1.45034713 C15.8797339,1.05712925 15.9528687,0.490097656 15.6489321,0.18901053"></path>
                    </g>
                </g>
            </g>
        </g>
    </g>
</svg>