<?xml version="1.0" standalone="no"?><!DOCTYPE svg PUBLIC "-//W3C//DTD SVG 1.1//EN" "http://www.w3.org/Graphics/SVG/1.1/DTD/svg11.dtd"><svg t="1698050952843" class="icon" viewBox="0 0 1024 1024" version="1.1" xmlns="http://www.w3.org/2000/svg" p-id="5122" xmlns:xlink="http://www.w3.org/1999/xlink" width="200" height="200"><path d="M511.488 1013.248c-5.632 0-10.752-1.536-15.36-4.608C371.712 933.376 281.6 870.912 215.04 790.528c-76.8-92.16-114.176-199.68-118.272-337.92v-2.56c0-7.68-0.512-14.848-0.512-22.016s0-14.848 0.512-22.016V263.68c0-16.384 13.312-30.208 30.208-30.208 147.968 0 285.184-79.872 358.4-208.384 5.12-9.216 15.36-15.36 26.112-15.36 10.752 0 20.992 5.632 26.112 15.36 73.216 128.512 210.944 208.384 358.912 208.384 16.384 0 30.208 13.312 30.208 30.208v188.928c0 2.048 0 4.096-0.512 5.632-10.24 292.864-172.032 413.184-398.848 550.912-5.12 2.56-10.24 4.096-15.872 4.096zM157.184 451.584c3.584 123.904 36.864 219.136 104.448 300.544 58.368 70.656 139.776 128 250.368 195.584 209.92-128 347.136-236.032 354.816-496.64 0-1.536 0-2.56 0.512-4.096V292.352c-141.824-9.216-272.384-81.92-354.816-197.12-83.456 115.2-214.016 187.904-355.328 197.12v114.688c0 7.168-0.512 14.336-0.512 20.992 0 7.168 0 13.824 0.512 20.992v2.56z" p-id="5123" fill="#ffffff"></path><path d="M522.752 773.632c-3.584 0-7.168-0.512-10.752-2.048-15.36-6.144-23.04-23.552-17.408-38.912l68.096-175.616H438.784c-9.728 0-18.944-4.608-24.576-12.8-5.632-8.192-7.168-18.432-3.584-27.648l72.704-204.8c5.632-15.872 22.528-24.064 38.4-18.432 15.872 5.632 24.064 22.528 18.432 38.4L481.28 497.152h125.44c9.728 0 19.456 5.12 24.576 13.312 5.632 8.192 6.656 18.432 3.072 27.648l-83.968 216.576c-4.096 11.776-15.36 18.944-27.648 18.944z" p-id="5124" fill="#ffffff"></path></svg>