<?xml version="1.0" encoding="UTF-8"?>
<svg width="24px" height="24px" viewBox="0 0 24 24" version="1.1" xmlns="http://www.w3.org/2000/svg" xmlns:xlink="http://www.w3.org/1999/xlink">
    <title>慧眼币图标</title>
    <g id="页面-1" stroke="none" stroke-width="1" fill="none" fill-rule="evenodd">
        <g id="查询支付界面" transform="translate(-43.000000, -329.000000)">
            <g id="慧眼币支付" transform="translate(16.000000, 329.000000)">
                <g id="编组" transform="translate(27.000000, 0.000000)">
                    <g id="慧眼币图标" transform="translate(2.000000, 1.999956)">
                        <g id="编组" fill="#006FFF">
                            <path d="M10.0000889,0 C4.47692868,0 0,4.47734328 0,10.0000222 C0,15.5227012 4.47692868,20.0000444 10.0000889,20.0000444 C15.5228046,20.0000444 20.0001778,15.5227012 20.0001778,10.0000222 C20.0001778,4.47734328 15.5228046,0 10.0000889,0" id="Fill-1"></path>
                        </g>
                        <path d="M12.1977182,13.9336628 C12.1017673,13.5638174 12.3972068,13.2085537 12.7819029,13.2306472 L13.0112924,13.2434614 C13.23131,13.2434614 13.3473436,13.1175284 13.3473436,12.8881977 L13.3473436,10.1835096 C13.3473436,9.871991 13.0920696,9.61968306 12.7778863,9.61968306 L11.3444248,9.61968306 C11.0302415,9.61968306 10.7754138,9.871991 10.7754138,10.1835096 L10.7754138,15.2256916 C10.7754138,15.5372102 10.5205861,15.7895181 10.2064028,15.7895181 L10.1166999,15.7895181 C9.80251655,15.7895181 9.54768887,15.5372102 9.54768887,15.2256916 L9.54768887,10.1835096 C9.54768887,9.871991 9.29286119,9.61968306 8.97867786,9.61968306 L7.5340593,9.61968306 C7.21987596,9.61968306 6.96504828,9.871991 6.96504828,10.1835096 L6.96504828,13.8497075 C6.96504828,14.1607842 6.71022061,14.413534 6.39559099,14.413534 L6.32998736,14.413534 C6.01535774,14.413534 5.76053006,14.1607842 5.76053006,13.8497075 L5.76053006,9.03641426 C5.76053006,8.72533756 6.01535774,8.47302962 6.32998736,8.47302962 L8.97867786,8.47302962 C9.29286119,8.47302962 9.54768887,8.22072167 9.54768887,7.90920311 L9.54768887,7.62463863 C9.54768887,7.3007477 9.27456358,7.04534666 8.94788432,7.06257961 C7.96963165,7.1147203 6.93648616,7.14609309 5.83952218,7.15272115 C5.59406645,7.15404676 5.37181744,6.99850841 5.29327161,6.76785211 C5.16920489,6.40419285 5.44411531,6.03037057 5.83148908,6.02551 C9.0014383,5.9897185 11.7353689,5.7338756 14.0404213,5.27433048 C14.2796291,5.22705036 14.5183906,5.33309923 14.6406722,5.54166202 L14.6585235,5.5717092 C14.8553344,5.90532128 14.6634326,6.32951677 14.2814142,6.40861155 C13.3772446,6.59552269 12.3793555,6.7501773 11.286408,6.87080789 C10.9981091,6.90306443 10.7754138,7.14255813 10.7754138,7.4302157 L10.7754138,7.90920311 C10.7754138,8.22072167 11.0302415,8.47302962 11.3444248,8.47302962 L13.9824045,8.47302962 C14.2970341,8.47302962 14.5518618,8.72533756 14.5518618,9.03641426 L14.5518618,13.1519943 C14.5518618,13.977408 14.1689509,14.3905567 13.4165175,14.3905567 L12.7578036,14.3905567 C12.4980668,14.3905567 12.2713549,14.216018 12.2066439,13.967245 L12.1977182,13.9336628 Z" id="Fill-3" fill="#FFFFFF"></path>
                    </g>
                </g>
            </g>
        </g>
    </g>
</svg>