<?xml version="1.0" encoding="UTF-8"?>
<svg width="23px" height="25px" viewBox="0 0 23 25" version="1.1" xmlns="http://www.w3.org/2000/svg" xmlns:xlink="http://www.w3.org/1999/xlink">
    <title>注销账号</title>
    <g id="页面-1" stroke="none" stroke-width="1" fill="none" fill-rule="evenodd">
        <g id="苹果A面我的界面备份-2" transform="translate(-15.000000, -466.000000)" fill="#1B7CF6" fill-rule="nonzero" stroke="#1B7CF6" stroke-width="0.6">
            <g id="注销账号" transform="translate(15.000000, 466.000000)">
                <g id="发布" transform="translate(1.089844, 8.170420)">
                    <path d="M13.4367187,15.6061427 C13.3242188,15.6061427 13.2117187,15.5762599 13.1097656,15.5182521 L7.98398438,12.5580958 C7.79414062,12.4491114 7.72910156,12.2047755 7.83808594,12.0149317 C7.94882812,11.825088 8.19140625,11.7600489 8.38125,11.8690333 L13.3207031,14.721963 L14.9871094,0.895009867 L0.958007812,7.58348643 L5.85351562,10.4100489 C6.04335937,10.5190333 6.10839844,10.7633692 5.99941406,10.953213 C5.89042969,11.1430567 5.64609375,11.2098536 5.45625,11.0991114 L0.328710938,8.13895518 C0.123046875,8.01942393 0,7.80848643 0,7.57118174 C0,7.33387705 0.123046875,7.12118174 0.328710938,7.0034083 L0.356835937,6.9893458 L14.8482422,0.0793848668 C15.0503906,-0.0295995082 15.2876953,-0.0260838832 15.4863281,0.0881739293 C15.6919922,0.205947367 15.8132812,0.418642679 15.8132812,0.655947367 L15.8097656,0.703408304 L14.0888672,14.9786036 C14.0800781,15.2036036 13.9587891,15.4039942 13.7619141,15.5164942 C13.6617187,15.5762599 13.5492187,15.6061427 13.4367187,15.6061427 Z" id="路径"></path>
                    <path d="M6.58300781,15.1332911 C6.36328125,15.1332911 6.18574219,14.9557521 6.18574219,14.7360255 L6.18574219,11.9991114 C6.18574219,11.7934474 6.25605469,11.5895411 6.38261719,11.4278224 L15.0240234,0.430947367 C15.159375,0.258681742 15.4089844,0.228798929 15.5830078,0.364150492 C15.7552734,0.499502054 15.7851563,0.750869242 15.6498047,0.923134867 L7.00839844,11.9182521 C6.99082031,11.9411036 6.98027344,11.9692286 6.98027344,11.9991114 L6.98027344,14.7360255 C6.98027344,14.9557521 6.80273438,15.1332911 6.58300781,15.1332911 Z" id="路径"></path>
                </g>
            </g>
        </g>
    </g>
</svg>