<?xml version="1.0" encoding="UTF-8"?>
<svg width="18px" height="18px" viewBox="0 0 18 18" version="1.1" xmlns="http://www.w3.org/2000/svg" xmlns:xlink="http://www.w3.org/1999/xlink">
    <title>提示</title>
    <g id="页面-1" stroke="none" stroke-width="1" fill="none" fill-rule="evenodd">
        <g id="个人开发票" transform="translate(-36.000000, -111.000000)" fill="#666666">
            <g id="编组" transform="translate(36.000000, 105.000000)">
                <path d="M8.42459397,12.2259861 C8.53016241,12.3141531 8.6612529,12.362413 8.81740139,12.3714617 C9.00116009,12.3897912 9.25684455,12.2795824 9.58329466,12.0403712 C9.90881671,11.8011601 10.0816705,11.6113689 10.1,11.4684455 C10.1180974,11.3257541 10.0698376,11.1055684 9.95522042,10.8062645 C9.83967517,10.5078886 9.7324826,10.3169374 9.63155452,10.2343387 C9.52969838,10.1515081 9.41044084,10.1060325 9.27308585,10.0969838 C9.00580046,10.087935 8.7675174,10.2097448 8.55545244,10.4617169 C8.34454756,10.7143852 8.20904872,10.9171694 8.14918794,11.0682135 C8.08909513,11.2201856 8.05986079,11.3283063 8.05986079,11.3918794 C8.05081206,11.5030162 8.08259861,11.6475638 8.15638051,11.8266821 C8.22993039,12.0058005 8.31902552,12.1394432 8.42459397,12.2259861 M11.0566125,17.7821346 L11.0064965,17.7099768 L10.849652,17.6399072 L10.7777262,17.6399072 C10.6937355,17.6399072 10.6018561,17.662181 10.3150812,17.8030162 L9.85545244,18.1134571 C9.72946636,18.1930394 9.58979118,18.2600928 9.43967517,18.312529 C9.28143852,18.3686775 9.11438515,18.412993 8.94385151,18.4443155 C8.82575406,18.4661253 8.73155452,18.4816705 8.62923434,18.4761021 C8.48677494,18.4591647 8.44640371,18.4032483 8.43201856,18.3823666 C8.38909513,18.3225058 8.37424594,18.2104408 8.38955916,18.0665893 C8.41183295,17.8554524 8.47215777,17.5658933 8.56798144,17.2058005 C8.66658933,16.837355 8.76287703,16.5171694 8.85475638,16.2464037 C8.94709977,15.9758701 9.05614849,15.6932715 9.18167053,15.3969838 C9.30533643,15.1039443 9.40487239,14.8916473 9.47703016,14.7649652 C9.54292343,14.6480278 9.6424594,14.5180974 9.77308585,14.3774942 C9.89675174,14.2424594 10.1865429,13.9259861 10.0194896,13.6220418 C9.92853828,13.4582367 9.76914153,13.3596288 9.51902552,13.3438515 C9.39675174,13.3438515 9.26171694,13.3705336 9.1062645,13.424594 C8.94431555,13.4812065 8.84153132,13.5241299 8.80139211,13.5468677 C8.75986079,13.5693735 8.69559165,13.6109049 8.412529,13.8429234 C8.13132251,14.0721578 8.05197216,14.1642691 8.01020882,14.2443155 C7.96937355,14.3215777 7.93781903,14.4303944 7.91438515,14.7099768 C7.90556845,14.8141531 7.86566125,15.0213457 7.72157773,15.4283063 L7.3136891,16.7345708 L6.98538283,17.6357309 C6.90069606,17.9438515 6.86867749,18.2104408 6.88770302,18.450348 C6.90533643,18.6835267 6.95220418,18.9011601 7.02691415,19.0962877 C7.10928074,19.312993 7.22320186,19.4900232 7.36566125,19.6215777 C7.52157773,19.7665893 7.71438515,19.8566125 7.92691415,19.887239 C7.98468677,19.8976798 8.0487239,19.9034803 8.11832947,19.9034803 C8.29327146,19.9034803 8.49698376,19.8682135 8.74199536,19.7955916 C9.04570766,19.7051044 9.2962877,19.6139211 9.50672854,19.5174014 C9.71809745,19.4222738 9.91670534,19.3111369 10.0986079,19.187471 C10.2633411,19.0740139 10.4341067,18.9519722 10.6090487,18.8206497 C10.8331787,18.6522042 10.975406,18.4793503 11.0445476,18.2907193 C11.1027842,18.1287703 11.1689095,17.9445476 11.0566125,17.7821346 M9,7.0587007 C4.62134571,7.0587007 1.0587007,10.6211137 1.0587007,15 C1.0587007,19.3786543 4.62134571,22.9410673 9,22.9410673 C13.3788863,22.9410673 16.9412993,19.3786543 16.9412993,15 C16.9412993,10.6211137 13.3786543,7.0587007 9,7.0587007 M9,24 C4.03735499,24 0,19.962413 0,15 C0,10.037355 4.03735499,6 9,6 C13.962645,6 18,10.037355 18,15 C18,19.962413 13.962645,24 9,24" id="提示"></path>
            </g>
        </g>
    </g>
</svg>