<?xml version="1.0" standalone="no"?><!DOCTYPE svg PUBLIC "-//W3C//DTD SVG 1.1//EN" "http://www.w3.org/Graphics/SVG/1.1/DTD/svg11.dtd"><svg class="icon" width="200px" height="200.00px" viewBox="0 0 1024 1024" version="1.1" xmlns="http://www.w3.org/2000/svg"><path d="M913.796062 318.969659c-7.671727-15.969717-26.804483-22.733771-42.804898-15.014972-15.937994 7.671727-22.670326 26.835182-14.998599 42.789549 91.184769 189.680037 11.085476 418.204777-178.610934 509.403872-189.570543 91.184769-418.157705 11.116175-509.373173-178.579211-91.183745-189.680037-11.085476-418.204777 178.610934-509.403872 129.355113-62.156642 280.817734-47.048549 395.454634 39.32975 14.122649 10.708899 34.225499 7.828292 44.903699-6.294356 10.646478-14.137998 7.828292-34.240849-6.325056-44.902676C646.787846 55.343469 469.836715 37.71395 318.813093 110.360504 97.271394 216.888725 3.707438 483.802798 110.203938 705.343473c76.654844 159.447479 236.383732 252.619508 402.50112 252.604158 64.693418-0.01535 130.388652-14.153348 192.482873-43.995003C926.728606 807.42543 1020.292562 540.510334 913.796062 318.969659z"  /><path d="M511.983627 661.301398c26.553773 0 48.097438-21.528316 48.097438-48.097438L560.081065 286.12153c0-26.569122-21.543665-48.097438-48.097438-48.097438-26.553773 0-48.097438 21.528316-48.097438 48.097438l0 327.08243C463.887212 639.774105 485.430878 661.301398 511.983627 661.301398z"  /><path d="M511.994883 747.618299m-58.641585 0a57.306 57.306 0 1 0 117.28317 0 57.306 57.306 0 1 0-117.28317 0Z"  /></svg>