<?xml version="1.0" encoding="UTF-8"?>
<svg width="43px" height="43px" viewBox="0 0 43 43" version="1.1" xmlns="http://www.w3.org/2000/svg" xmlns:xlink="http://www.w3.org/1999/xlink">
    <title>成功</title>
    <g id="页面-1" stroke="none" stroke-width="1" fill="none" fill-rule="evenodd">
        <g id="我的订单备份" transform="translate(-167.000000, -327.000000)" fill="#FFFFFF" fill-rule="nonzero">
            <g id="编组" transform="translate(98.000000, 302.000000)">
                <g id="成功" transform="translate(69.250000, 25.250000)">
                    <path d="M39.4825,32.1709063 C39.0294884,32.925681 38.0503842,33.1703084 37.2956094,32.7172969 C36.5408347,32.2642853 36.2962072,31.285181 36.7492188,30.5304063 C38.4319171,27.7276946 39.3181584,24.5190418 39.3125,21.25 C39.3125,11.2741875 31.2258125,3.1875 21.25,3.1875 C11.2741875,3.1875 3.1875,11.2741875 3.1875,21.25 C3.1875,31.2258125 11.2741875,39.3125 21.25,39.3125 C24.5185809,39.3182859 27.726834,38.4324209 30.5293438,36.7502812 C31.0175975,36.457329 31.6250506,36.4471103 32.1228815,36.7234743 C32.6207124,36.9998382 32.9332886,37.5207987 32.9428658,38.0901149 C32.9524431,38.6594311 32.6575662,39.1906103 32.1693125,39.4835625 C28.8714202,41.4629517 25.0963023,42.5058202 21.25,42.5000243 C9.51415628,42.5000243 0,32.9858437 0,21.25 C0,9.51415628 9.51415628,3.55271368e-15 21.25,3.55271368e-15 C32.9858438,3.55271368e-15 42.5,9.51415623 42.5,21.25 C42.5,25.149375 41.4465313,28.8984063 39.4825,32.1709063 Z M14.4059063,20.1269375 L18.6065,24.31 L28.0909063,14.81125 C28.712917,14.1883592 29.7221091,14.1876456 30.345,14.8096563 C30.9678909,15.431667 30.9686044,16.4408591 30.3465938,17.06375 L19.7375313,27.68875 C19.1161738,28.3110949 18.1081476,28.3125213 17.4850313,27.6919375 L12.1565938,22.3852813 C11.7478669,21.9845665 11.5854149,21.3954444 11.730996,20.8418776 C11.8765772,20.2883109 12.3078306,19.8553259 12.8608096,19.7075277 C13.4137886,19.5597296 14.0035568,19.7198196 14.4059063,20.1269375 Z" id="形状"></path>
                </g>
            </g>
        </g>
    </g>
</svg>