<?xml version="1.0" encoding="UTF-8"?>
<svg width="23px" height="25px" viewBox="0 0 23 25" version="1.1" xmlns="http://www.w3.org/2000/svg" xmlns:xlink="http://www.w3.org/1999/xlink">
    <title>修改密码</title>
    <g id="页面-1" stroke="none" stroke-width="1" fill="none" fill-rule="evenodd">
        <g id="苹果A面我的界面" transform="translate(-15.000000, -313.000000)" fill="#1B7CF6" stroke="#1B7CF6" stroke-width="0.3">
            <g id="修改密码" transform="translate(15.000000, 314.000000)">
                <g id="Fill-1" transform="translate(1.000000, 0.000000)">
                    <path d="M9.50046773,12.95925 C10.3077643,12.95925 10.9616464,13.6014407 10.9616464,14.3935074 C10.9616464,14.9238477 10.6684995,15.3869959 10.2324352,15.6351702 L10.2310571,17.9791507 C10.2310571,18.3756584 9.90458372,18.697228 9.50046773,18.697228 C9.09728718,18.697228 8.76987839,18.3756584 8.76987839,17.9791507 L8.76853699,15.6349544 C8.33268518,15.3867275 8.03928906,14.923694 8.03928906,14.3935074 C8.03928906,13.6014407 8.69410664,12.95925 9.50046773,12.95925 Z M17.5388213,11.5240441 C17.5388213,10.7338746 16.8830683,10.0907354 16.0767072,10.0907354 L2.9232928,10.0907354 C2.11786717,10.0907354 1.46211413,10.7338746 1.46211413,11.5240441 L1.46211413,20.1324339 C1.46211413,20.9226035 2.11786717,21.5657427 2.9232928,21.5657427 L16.0767072,21.5657427 C16.8830683,21.5657427 17.5388213,20.9226035 17.5388213,20.1324339 L17.5388213,11.5240441 Z M15.1459308,4.39259791 L15.4574369,5.60204111 C15.5612722,5.9852686 15.3302152,6.3789305 14.940131,6.48042887 C14.5500468,6.58287582 14.1496726,6.35521592 14.0439663,5.97293702 L13.7343312,4.76349383 C13.0785781,2.36073335 10.8428438,0.933116091 8.30402245,1.60091845 C5.73900842,2.27536089 4.61927035,4.62879505 5.2647334,6.99076646 L5.642,8.656 L16.0767072,8.65647803 C17.6894294,8.65647803 19,9.94275644 19,11.5240441 L19,20.1324339 C19,21.7137216 17.6894294,23 16.0767072,23 L2.9232928,23 C1.31150608,23 0,21.7137216 0,20.1324339 L0,11.5240441 C0,9.94275644 1.31150608,8.65647803 2.9232928,8.65647803 L4.146,8.656 L3.85219832,7.36261096 C2.99812909,4.23608173 4.5818522,1.0934266 7.9251637,0.215038839 C11.2553789,-0.659554591 14.2778297,1.21294805 15.1459308,4.39259791 Z"></path>
                </g>
            </g>
        </g>
    </g>
</svg>