<?xml version="1.0" encoding="UTF-8"?>
<svg width="16px" height="16px" viewBox="0 0 16 16" version="1.1" xmlns="http://www.w3.org/2000/svg" xmlns:xlink="http://www.w3.org/1999/xlink">
    <title>说明</title>
    <g id="页面-1" stroke="none" stroke-width="1" fill="none" fill-rule="evenodd">
        <g id="查询支付界面备份-5" transform="translate(-187.000000, -205.000000)" fill="#666666" fill-rule="nonzero">
            <g id="编组-10" transform="translate(16.000000, 172.000000)">
                <g id="编组-8" transform="translate(24.000000, 8.000000)">
                    <g id="说明" transform="translate(147.000000, 25.000000)">
                        <rect id="矩形" opacity="0" x="0" y="0" width="16" height="16"></rect>
                        <path d="M8.10221875,4.4444375 C7.47534573,4.40980214 6.86218631,4.63672199 6.40889063,5.07110938 C5.97612784,5.51849141 5.7476994,6.12495699 5.77778125,6.74667188 L6.81332812,6.74667188 C6.78965901,6.39089089 6.88164436,6.03699145 7.0755625,5.73776563 C7.30894264,5.44724526 7.67376787,5.29495626 8.0444375,5.33332813 C8.34705872,5.31483351 8.64409469,5.4208053 8.86667188,5.62667188 C9.06197544,5.84616468 9.16401279,6.13315173 9.15110937,6.42667188 C9.14613002,6.68644156 9.05375276,6.93695337 8.88889062,7.13776563 L8.7244375,7.3244375 C8.29230441,7.66900406 7.91601495,8.07828177 7.60889062,8.53778125 C7.47557389,8.828778 7.41167078,9.14676376 7.42221875,9.46667187 L7.42221875,9.63110937 L8.4444375,9.63110937 L8.4444375,9.46667187 C8.43969461,9.23918457 8.49324767,9.01426819 8.6,8.81332812 C8.700649,8.62359943 8.83638274,8.45469046 9,8.3155625 C9.29934221,8.07947065 9.58429382,7.82568407 9.85332813,7.5555625 C10.1069797,7.20804608 10.236863,6.78555412 10.2222344,6.3555625 C10.2479931,5.82609143 10.0361295,5.3127466 9.6444375,4.9555625 C9.21330745,4.59663356 8.66237884,4.41404378 8.10221875,4.4444375 Z M7.93778125,10.1644375 C7.75155116,10.1556135 7.57042278,10.2267731 7.44,10.36 C7.29716356,10.4850495 7.21871277,10.6681071 7.22667188,10.8577812 C7.23854686,11.2432925 7.55209884,11.5509744 7.93776562,11.5555632 C8.12431954,11.5558128 8.30452592,11.4878359 8.4444375,11.3644375 C8.57950885,11.2309512 8.65348608,11.0476279 8.64889062,10.8577812 C8.65852814,10.6683492 8.58364276,10.4844007 8.4444375,10.3555625 C8.30535653,10.2216653 8.11728405,10.1509347 7.9244375,10.16 L7.93778125,10.1644375 Z M8,0.888890625 C10.8761767,0.888890625 13.4691462,2.62147412 14.5698099,5.27871549 C15.6704736,7.93595686 15.0620744,10.994573 13.0283081,13.0283348 C10.9945419,15.0620966 7.93592438,15.6704891 5.27868543,14.5698195 C2.62144647,13.46915 0.888890625,10.8761767 0.888890625,8 C0.888890625,4.07264274 4.07264274,0.888890625 8,0.888890625 M8,0 C3.581722,0 0,3.581722 0,8 C0,12.418278 3.581722,16 8,16 C12.418278,16 16,12.418278 16,8 C16,5.87826808 15.1571453,3.84343678 13.6568542,2.34314575 C12.1565632,0.842854723 10.1217319,0 8,0 Z" id="形状"></path>
                    </g>
                </g>
            </g>
        </g>
    </g>
</svg>