<?xml version="1.0" encoding="UTF-8"?>
<svg width="23px" height="23px" viewBox="0 0 23 23" version="1.1" xmlns="http://www.w3.org/2000/svg" xmlns:xlink="http://www.w3.org/1999/xlink">
    <title>法律条文</title>
    <g id="页面-1" stroke="none" stroke-width="1" fill="none" fill-rule="evenodd">
        <g id="苹果A面我的界面" transform="translate(-14.000000, -265.000000)" fill="#1B7CF6" stroke="#1B7CF6" stroke-width="0.3">
            <g id="法律条文" transform="translate(14.000000, 265.000000)">
                <g id="编组" transform="translate(2.000000, 1.999682)">
                    <path d="M13.2852403,7.00031821 L4.71062354,7.00031821 C4.31742242,7.00031821 4.00001449,7.34418276 4.00001449,7.76484954 C3.99752999,8.18289807 4.31492326,8.52676262 4.71062354,8.52938087 L13.2877395,8.52938087 C13.6809406,8.52938087 14,8.18551633 14,7.76484954 C14,7.34418276 13.6784415,7.00031821 13.2852403,7.00031821 M9.15662858,10.46951 L4.71062354,10.46951 C4.31742242,10.46951 4.00001449,10.8116291 4.00001449,11.2357869 C3.99752999,11.6538354 4.31492326,11.9950817 4.71062354,12.0003182 L9.15662858,12.0003182 C9.55232886,11.9977 9.87222129,11.6538354 9.86973668,11.2357869 C9.86973668,10.8116291 9.5498297,10.46951 9.15662858,10.46951" id="Fill-1"></path>
                    <path d="M2.18616393,18.6073523 C1.73094523,18.6073523 1.36247275,18.2278864 1.36247275,17.7617082 L1.36247275,4.31095519 C1.61634472,4.41835119 1.89647931,4.47801564 2.18855144,4.47801564 L16.637766,4.47801564 L16.637766,18.6073523 L2.18616393,18.6073523 Z M2.18616393,1.39535254 L14.5073106,1.39535254 L14.5073106,3.08504968 L2.18616393,3.08504968 C1.73094523,3.08504968 1.36242686,2.70637932 1.36242686,2.24179216 C1.35769773,1.777205 1.72617021,1.39773912 2.18616393,1.39535254 L2.18616393,1.39535254 Z M17.3190024,3.08504968 L15.8697834,3.08504968 L15.8697834,0.696880743 C15.8697834,0.312641703 15.5657737,0 15.188547,0 L2.18616393,0 C1.02742542,0 0.0867462209,0.930765376 0.0135292271,2.09859749 C0.00477502133,2.14394247 0,2.19008297 0,2.23940558 L0,17.7617082 C0,17.8102352 0.00477502133,17.8603534 0.0135292271,17.9041073 C0.0867462209,19.0719394 1.02742542,20.0003182 2.18616393,20.0003182 L17.3190024,20.0003182 C17.6986166,19.9987272 18.0026263,19.6852899 18.0002527,19.304233 L18.0002527,3.78193042 C18.0002527,3.39848691 17.6962291,3.08504968 17.3190024,3.08504968 L17.3190024,3.08504968 Z" id="Fill-3"></path>
                </g>
            </g>
        </g>
    </g>
</svg>