<?xml version="1.0" encoding="UTF-8"?>
<svg width="20px" height="20px" viewBox="0 0 20 20" version="1.1" xmlns="http://www.w3.org/2000/svg" xmlns:xlink="http://www.w3.org/1999/xlink">
    <title>搜索</title>
    <g id="页面-1" stroke="none" stroke-width="1" fill="none" fill-rule="evenodd">
        <g id="苹果AB面主页" transform="translate(-336.000000, -62.000000)" fill="#999999" fill-rule="nonzero">
            <g id="搜索" transform="translate(336.000000, 62.000000)">
                <rect id="矩形" opacity="0" x="0" y="0" width="20" height="20"></rect>
                <path d="M14.8841887,13.7152681 C14.9261586,13.7446423 14.967289,13.7773737 15.0042225,13.8159799 L19.7585675,18.5687374 C20.0783778,18.8884973 20.0834142,19.4247876 19.7560493,19.752101 C19.5997364,19.9101445 19.3868565,19.9993599 19.1645528,20 C18.9422491,20.0006201 18.7288666,19.9126129 18.57166,19.755458 L13.8173151,15.0018613 C13.7805458,14.9651066 13.7473784,14.9249185 13.7182662,14.8818464 C12.2185103,16.1154201 10.3359906,16.788427 8.39397065,16.7852993 C3.75798066,16.7852993 0,13.0279101 0,8.39264966 C0,3.75738926 3.75798066,0 8.39397065,0 C13.0299606,0 16.7879413,3.75738926 16.7879413,8.39264966 C16.7879413,10.4127604 16.0744538,12.2666967 14.8841887,13.7152681 Z M8.39397065,15.1067694 C12.1026602,15.1067694 15.1091472,12.1007556 15.1091472,8.39264965 C15.1091472,4.68454372 12.1026602,1.67852992 8.39397065,1.67852992 C4.68528107,1.67852992 1.67879413,4.68454372 1.67879413,8.39264965 C1.67879413,12.1007556 4.68528107,15.1067694 8.39397065,15.1067694 Z" id="形状"></path>
            </g>
        </g>
    </g>
</svg>