<?xml version="1.0" encoding="UTF-8"?>
<svg width="15px" height="15px" viewBox="0 0 15 15" version="1.1" xmlns="http://www.w3.org/2000/svg" xmlns:xlink="http://www.w3.org/1999/xlink">
    <title>收藏成功图标</title>
    <g id="页面-1" stroke="none" stroke-width="1" fill="none" fill-rule="evenodd">
        <g id="背调页面备份" transform="translate(-128.000000, -317.000000)" fill="#FFC758" fill-rule="nonzero">
            <g id="编组-15" transform="translate(16.000000, 94.000000)">
                <g id="编组-6" transform="translate(0.000000, 149.000000)">
                    <g id="收藏" transform="translate(112.000000, 74.000000)">
                        <path d="M8.01575741,0.107787941 C8.34188569,0.249935946 8.59992259,0.518660228 8.73351699,0.855275715 L10.0859725,4.24752787 C10.1172855,4.32637273 10.1857239,4.37829495 10.2622249,4.384641 L13.7728343,4.67809773 C14.5089691,4.73963518 15.0540388,5.40750887 14.9957256,6.16576569 C14.9683329,6.52761596 14.8037484,6.86404145 14.537282,7.10286572 L11.8625588,9.49321121 C11.8003079,9.54878723 11.7721826,9.63878576 11.7918703,9.72493818 L12.6090062,13.2989181 C12.7781335,14.0383291 12.3390026,14.7833169 11.6221805,14.9615832 C11.2769814,15.0475081 10.912594,14.9874968 10.6109796,14.7950475 L7.60550195,12.8796942 C7.5409568,12.8381426 7.45891928,12.8381426 7.39437413,12.8796942 L4.38870901,14.7950475 L4.38889652,14.7948552 C3.75757559,15.1971563 2.93200208,14.9890828 2.54855947,14.3340935 C2.3667859,14.0231059 2.31029048,13.6517234 2.39105737,13.2987258 L3.20819327,9.72474589 C3.22802042,9.63998901 3.20086976,9.55091131 3.13750483,9.49282661 L0.462781635,7.10248112 C-0.0927882728,6.6063354 -0.156914129,5.7386573 0.318029698,5.16020523 C0.546291384,4.88145933 0.873693824,4.70781917 1.22741683,4.67790544 L4.73765118,4.384641 C4.8141522,4.37810264 4.8825906,4.32637273 4.91390353,4.24772016 L6.26635907,0.855275715 C6.54817533,0.148556516 7.33193579,-0.188937958 8.01575741,0.107787941 Z" id="形状"></path>
                    </g>
                </g>
            </g>
        </g>
    </g>
</svg>