<?xml version="1.0" encoding="UTF-8"?>
<svg width="18px" height="18px" viewBox="0 0 18 18" version="1.1" xmlns="http://www.w3.org/2000/svg" xmlns:xlink="http://www.w3.org/1999/xlink">
    <title>SVIP图标</title>
    <g id="页面-1" stroke="none" stroke-width="1" fill="none" fill-rule="evenodd">
        <g id="我的订单" transform="translate(-32.000000, -621.000000)" fill="#F5A207">
            <g id="个人报告" transform="translate(16.000000, 605.000000)">
                <g id="SVIP图标" transform="translate(16.000000, 16.000000)">
                    <g transform="translate(1.499750, 1.500000)" id="Fill-1">
                        <path d="M11.4441731,7.38928919 L8.1323089,11.5159705 C8.10058446,11.5568784 8.04214471,11.5251539 8.05550236,11.4758976 L9.39210297,7.32584032 C9.39627724,7.30329927 9.41881829,7.28576735 9.44636846,7.28576735 L11.4984386,7.28576735 C11.4850809,7.32166605 11.4667142,7.35756476 11.4441731,7.38928919 M7.51117782,11.7547387 L6.03515666,7.36257388 C6.021799,7.32584032 6.04851432,7.28576735 6.09359641,7.28576735 L9.01391429,7.28576735 C9.049813,7.28576735 9.08153744,7.32584032 9.06817978,7.36257388 L7.59215862,11.7547387 C7.57880096,11.7948116 7.52453548,11.7948116 7.51117782,11.7547387 M6.97102754,11.4441731 L3.71760307,7.38928919 C3.68587863,7.35339049 3.66333759,7.32166605 3.64580566,7.299125 L3.632448,7.299125 L3.62326461,7.28576735 L5.65696798,7.28576735 C5.67950903,7.28576735 5.70205007,7.30329927 5.71123346,7.32584032 L7.02946729,11.4124487 C7.0436598,11.4483474 6.99356859,11.4758976 6.97102754,11.4441731 M3.68170437,6.94848649 L4.68519839,5.26041252 C4.71191371,5.22033955 4.77035346,5.22451381 4.78872024,5.26542164 L5.54008847,6.90757867 C5.55845525,6.94347737 5.52673082,6.98855947 5.48582299,6.98855947 L3.65916332,6.98855947 C3.66333759,6.97520181 3.67252098,6.96184415 3.68170437,6.94848649 M4.9999382,4.88723296 C5.06255222,4.85550852 5.13101021,4.8379766 5.19362423,4.8379766 L7.13716341,4.8379766 C7.18725462,4.8379766 7.21396994,4.88723296 7.18725462,4.92730593 L5.89072699,6.76398385 C5.86818594,6.79988255 5.80974619,6.79570829 5.79221426,6.75480046 L4.97322288,4.96403949 C4.95903037,4.93648932 4.97322288,4.90059062 4.9999382,4.88723296 M7.59633289,4.99492908 L8.94629115,6.89923013 C8.97384132,6.93512884 8.94211689,6.98855947 8.89703479,6.98855947 L6.20630165,6.98855947 C6.15704528,6.98855947 6.12949511,6.93512884 6.15704528,6.89923013 L7.50199443,4.99492908 C7.52453548,4.96403949 7.57379184,4.96403949 7.59633289,4.99492908 M7.96533818,4.83296748 L9.96397769,4.83296748 C10.0265917,4.83296748 10.0983891,4.85550852 10.161838,4.88723296 L9.31112218,6.74561707 C9.2927554,6.7865249 9.23932477,6.79069916 9.21260945,6.75480046 L7.91608181,4.92313167 C7.8893665,4.88723296 7.92025608,4.83296748 7.96533818,4.83296748 M10.4406791,5.21115616 L11.4758976,6.94848649 C11.4800718,6.96184415 11.4892552,6.97520181 11.4942643,6.98855947 L9.61751345,6.98855947 C9.57243135,6.98855947 9.54571604,6.94848649 9.56324796,6.90757867 L10.3371572,5.21533042 C10.3596983,5.17525745 10.418138,5.17024833 10.4406791,5.21115616 M7.58297523,0 C3.39284502,0 0,3.39284502 0,7.58297523 C0,11.7722706 3.39284502,15.1651156 7.58297523,15.1651156 C11.7731054,15.1651156 15.1659505,11.7722706 15.1659505,7.58297523 C15.1659505,3.39284502 11.7731054,0 7.58297523,0"></path>
                    </g>
                </g>
            </g>
        </g>
    </g>
</svg>