<?xml version="1.0" encoding="UTF-8"?>
<svg width="18px" height="18px" viewBox="0 0 18 18" version="1.1" xmlns="http://www.w3.org/2000/svg" xmlns:xlink="http://www.w3.org/1999/xlink">
    <title>会员升级</title>
    <defs>
        <polygon id="path-1" points="0 0 13 0 13 14.6217001 0 14.6217001"></polygon>
    </defs>
    <g id="页面-1" stroke="none" stroke-width="1" fill="none" fill-rule="evenodd">
        <g id="我的订单" transform="translate(-159.000000, -451.000000)">
            <g id="会员升级" transform="translate(159.000000, 451.000000)">
                <g id="升级" transform="translate(3.000000, 2.000000)">
                    <mask id="mask-2" fill="white">
                        <use xlink:href="#path-1"></use>
                    </mask>
                    <g id="Clip-2"></g>
                    <path d="M11.3757805,12.9967065 L1.62609784,12.9967065 C1.17915463,12.9967065 0.813629574,13.3623584 0.813629574,13.8092382 C0.813629574,14.2560545 1.17915463,14.6217065 1.62609784,14.6217065 L11.3757805,14.6217065 C11.8226603,14.6217065 12.1881854,14.2560545 12.1881854,13.8092382 C12.1881854,13.3623584 11.8226603,12.9967065 11.3757805,12.9967065 L11.3757805,12.9967065 Z M8.93831228,12.1850632 C9.3852555,12.1850632 9.75078055,11.8195381 9.75078055,11.3725949 C9.75078055,10.9257151 9.3852555,10.5601266 8.93831228,10.5601266 L4.06350266,10.5601266 C3.6166229,10.5601266 3.25097093,10.9257151 3.25097093,11.3725949 C3.25097093,11.8195381 3.6166229,12.1850632 4.06350266,12.1850632 L8.93831228,12.1850632 Z M9.97015904,5.68525354 C9.92954514,5.68525354 9.89711749,5.70156256 9.85644013,5.70968534 C9.82394902,5.70156256 9.79139444,5.68525354 9.75078055,5.68525354 C9.30396425,5.68525354 8.93831228,6.05090551 8.93831228,6.49778527 L8.93831228,8.09835348 C8.88145283,8.11459904 8.81647059,8.12265836 8.72712003,8.12265836 L4.27469491,8.12265836 C4.18534434,8.12265836 4.12036211,8.11459904 4.06350266,8.10647626 L4.06350266,6.49778527 C4.06350266,6.05090551 3.69785069,5.68525354 3.25097093,5.68525354 C3.23472537,5.68525354 3.22653913,5.69343978 3.21042049,5.69343978 C3.20229771,5.69343978 3.18598869,5.68525354 3.17786592,5.68525354 L1.91851789,5.68525354 L6.17593285,1.70413998 C6.28971521,1.60666663 6.71209972,1.60666663 6.82588208,1.70413998 L11.0994791,5.68525354 L9.97015904,5.68525354 Z M12.5538373,4.8240486 L7.93902009,0.517960421 C7.19965683,-0.172666166 5.81028088,-0.172666166 5.07091762,0.517960421 L0.456036923,4.83217138 C0.0335889601,5.22212823 -0.11268452,5.78272689 0.0904484125,6.27840678 C0.33419524,6.90398768 1.04113084,7.31025354 1.87790399,7.31025354 L2.43850266,7.31025354 L2.43850266,8.3827142 C2.43850266,9.17893691 3.21042049,9.74765836 4.27469491,9.74765836 L8.7352428,9.74765836 C9.79139444,9.74765836 10.5633123,9.17893691 10.5633123,8.3827142 L10.5633123,7.31025354 L11.1157882,7.31025354 C11.9526248,7.31025354 12.6594969,6.90398768 12.9113665,6.270284 C13.1063767,5.77466757 12.9764122,5.21400545 12.5538373,4.8240486 L12.5538373,4.8240486 Z" id="Fill-1" fill="#FEAF0D" mask="url(#mask-2)"></path>
                </g>
            </g>
        </g>
    </g>
</svg>