<?xml version="1.0" encoding="UTF-8"?>
<svg width="19px" height="18px" viewBox="0 0 19 18" version="1.1" xmlns="http://www.w3.org/2000/svg" xmlns:xlink="http://www.w3.org/1999/xlink">
    <title>VIP图标</title>
    <g id="页面-1" stroke="none" stroke-width="1" fill="none" fill-rule="evenodd">
        <g id="我的订单" transform="translate(-31.000000, -114.000000)" fill="#FEAF0D">
            <g id="VIP" transform="translate(16.000000, 98.000000)">
                <g id="VIP图标" transform="translate(15.500000, 16.000000)">
                    <g transform="translate(0.496769, 2.000000)" id="编组-2">
                        <path d="M13.1354936,12.6143422 L3.28408497,12.6143422 C3.02327845,12.6143422 2.76324126,12.8228335 2.76324126,13.1359552 L2.76324126,13.5006227 C2.76324126,13.7614293 2.97173262,14.0222358 3.28408497,14.0222358 L13.1878088,14.0222358 C13.4486153,14.0222358 13.7094218,13.8137444 13.6571067,13.5006227 L13.6571067,13.1359552 C13.6571067,12.8751487 13.3963001,12.6143422 13.1354936,12.6143422 M15.0642309,4.11851198 L11.6760542,6.20342548 C11.623739,6.25497131 11.623739,6.25497131 11.5721931,6.20342548 L8.34019255,2.08514431 C8.28787738,2.03359847 8.28787738,2.03359847 8.2355622,2.08514431 L4.58734824,6.20342548 C4.53503307,6.25497131 4.53503307,6.25497131 4.4827179,6.20342548 L1.563839,4.11851198 C1.51152382,4.0661968 1.45997799,4.11851198 1.45997799,4.17005781 L2.60629575,11.5718854 C2.60629575,11.6765158 2.71092609,11.7280616 2.8147871,11.7280616 L13.6047915,11.7280616 C13.7094218,11.7280616 13.7609677,11.6765158 13.8132828,11.5718854 L15.1688613,4.22237298 C15.1688613,4.11851198 15.1165461,4.0661968 15.0642309,4.11851198" id="Fill-1"></path>
                        <path d="M0,3.17976236 C0,3.69829804 0.420060064,4.11835811 0.938595747,4.11835811 C1.45636209,4.11835811 1.87642215,3.69829804 1.87642215,3.17976236 C1.87642215,2.66199602 1.45636209,2.24116661 0.938595747,2.24116661 C0.420060064,2.24116661 0,2.66199602 0,3.17976236" id="Fill-3"></path>
                        <path d="M7.40190454,0.938211076 C7.40190454,1.45674676 7.8219646,1.87680682 8.34050029,1.87680682 C8.85826663,1.87680682 9.27832669,1.45674676 9.27832669,0.938211076 C9.27832669,0.602778498 9.09983963,0.293503506 8.80979816,0.125787217 C8.51898735,-0.0419290723 8.16124389,-0.0419290723 7.87120241,0.125787217 C7.5803916,0.293503506 7.40190454,0.602778498 7.40190454,0.938211076" id="Fill-5"></path>
                        <path d="M14.8038091,3.17976236 C14.8038091,3.69829804 15.2238691,4.11835811 15.7416355,4.11835811 C16.2601712,4.11835811 16.6802312,3.69829804 16.6802312,3.17976236 C16.6802312,2.66199602 16.2601712,2.24116661 15.7416355,2.24116661 C15.2238691,2.24116661 14.8038091,2.66199602 14.8038091,3.17976236" id="Fill-7"></path>
                    </g>
                </g>
            </g>
        </g>
    </g>
</svg>