<?xml version="1.0" encoding="UTF-8"?>
<svg width="24px" height="24px" viewBox="0 0 24 24" version="1.1" xmlns="http://www.w3.org/2000/svg" xmlns:xlink="http://www.w3.org/1999/xlink">
    <title>微信支付图标</title>
    <g id="页面-1" stroke="none" stroke-width="1" fill="none" fill-rule="evenodd">
        <g id="查询支付界面" transform="translate(-43.000000, -222.000000)" fill="#07C160">
            <g id="微信支付" transform="translate(16.000000, 222.000000)">
                <g id="编组" transform="translate(27.000000, 0.000000)">
                    <g id="Fill-1" transform="translate(2.000000, 3.000000)">
                        <path d="M7.26882054,10.9965572 C6.95499748,11.1551736 6.56483908,11.0382983 6.38672329,10.7294137 L6.35279648,10.6375831 L4.52923007,6.70556495 C4.52074836,6.65547554 4.52074836,6.60538614 4.52923007,6.56364497 C4.52923007,6.37998383 4.67341904,6.23806385 4.85153483,6.23806385 L4.86849824,6.23806385 C4.93635187,6.23806385 5.0042055,6.26310855 5.06357743,6.30484972 L7.24337542,7.80753182 C7.4045278,7.90771063 7.5911253,7.96614827 7.78620449,7.96614827 C7.90494835,7.9744965 8.01521051,7.9494518 8.13395437,7.8993624 L18.1762922,3.47479843 C16.0897929,1.21242704 13.1127148,-0.0565045161 10.008411,0.00193312129 C4.47833984,0.00193312129 0,3.67515604 0,8.24163999 C0.0678536339,10.7377619 1.35707268,13.0502227 3.46053533,14.4360295 C3.68954135,14.6029942 3.78284009,14.8868342 3.69802305,15.1539777 L3.24849272,16.8319727 C3.22304761,16.9071068 3.2060842,16.9822409 3.1976025,17.0657232 C3.1976025,17.2410361 3.34179147,17.3913043 3.51990726,17.3913043 L3.53687067,17.3913043 C3.5962426,17.3913043 3.66409623,17.3746079 3.72346816,17.3328667 L5.90326615,16.0889799 C6.06441853,15.9971493 6.24253432,15.9387116 6.43761352,15.9387116 C6.53939397,15.9387116 6.63269272,15.9554081 6.72599146,15.9804528 C7.78620449,16.2809892 8.88034434,16.4312574 9.9914476,16.4229092 C15.5130371,16.4229092 20,12.7580345 20,8.22494352 C20.0083403,6.87252963 19.6351453,5.55350867 18.9057188,4.40145239 L7.35363758,10.954816 L7.26882054,10.9965572 Z"></path>
                    </g>
                </g>
            </g>
        </g>
    </g>
</svg>