<?xml version="1.0" encoding="UTF-8"?>
<svg width="23px" height="23px" viewBox="0 0 23 23" version="1.1" xmlns="http://www.w3.org/2000/svg" xmlns:xlink="http://www.w3.org/1999/xlink">
    <title>我的搜藏</title>
    <g id="页面-1" stroke="none" stroke-width="1" fill="none" fill-rule="evenodd">
        <g id="苹果A面我的界面" transform="translate(-15.000000, -414.000000)" fill="#1B7CF6">
            <g id="我的搜藏" transform="translate(15.000000, 414.000000)">
                <path d="M19.3955424,7.42382953 C18.3678864,6.39252288 16.9715154,5.8129833 15.5158215,5.8129833 C14.0592149,5.8129833 12.6637566,6.39252288 11.6361006,7.42382953 L8.46825514,10.591675 C8.11140479,10.9485254 8.11140479,11.5271523 8.46825514,11.8840027 C8.82419284,12.2399403 9.40281976,12.2399403 9.75967011,11.8840027 L12.9275156,8.71615717 C14.3530917,7.28693042 16.6675994,7.28327978 18.0968261,8.70885588 C19.5260529,10.134432 19.5287909,12.4489397 18.1032148,13.8781664 L13.2104404,18.7718534 L11.0063647,20.9804924 L3.90312603,13.8781664 C2.47846259,12.4525903 2.47846259,10.1417333 3.90312603,8.71615717 C4.2481118,8.3711714 4.6597218,8.10102382 5.1133142,7.92122965 C5.99129385,7.56894259 6.97331682,7.56894259 7.85220913,7.92122965 C8.31949144,8.11015042 8.85157266,7.88472322 9.04049344,7.41744091 C9.22941421,6.94924594 9.00398701,6.41716472 8.5367047,6.22824394 C7.2179099,5.70255135 5.74670076,5.70255135 4.42881863,6.22824394 C2.72396833,6.91547749 1.4781864,8.41224113 1.11038412,10.2129208 C0.743494492,12.0136005 1.3038682,13.8790791 2.60258445,15.1796206 L3.88487282,16.461909 L9.71403708,22.2682568 C10.236079,22.7902987 11.0218799,22.9472764 11.7045502,22.6652642 C11.9263268,22.5730854 12.1280248,22.4380117 12.2977797,22.2682568 L14.5027681,20.0678317 L19.3955424,15.170494 C21.5348192,13.0312172 21.5348192,9.56310635 19.3955424,7.42382953"></path>
            </g>
        </g>
    </g>
</svg>