<?xml version="1.0" encoding="UTF-8"?>
<svg width="25px" height="24px" viewBox="0 0 25 24" version="1.1" xmlns="http://www.w3.org/2000/svg" xmlns:xlink="http://www.w3.org/1999/xlink">
    <title>皇冠2</title>
    <g id="页面-1" stroke="none" stroke-width="1" fill="none" fill-rule="evenodd">
        <g id="苹果AB面主页" transform="translate(-88.000000, -153.000000)" fill="#C3C4C5">
            <g id="编组-2" transform="translate(16.000000, 95.000000)">
                <g id="皇冠2" transform="translate(73.094853, 58.388884)">
                    <g transform="translate(11.500000, 11.500000) rotate(33.000000) translate(-11.500000, -11.500000) translate(2.806282, 3.576558)" id="Fill-1">
                        <path d="M3.27349774,15.8468835 C3.03345951,15.8468835 2.83865333,15.6450971 2.83865333,15.3968539 C2.83865333,15.1484333 3.03345951,14.9470016 3.27349774,14.9470016 L14.2791047,14.9470016 C14.5193143,14.9470016 14.7137778,15.1484333 14.7137778,15.3968539 C14.7137778,15.6450971 14.5193143,15.8468835 14.2791047,15.8468835 L3.27264107,15.8468835 L3.27349774,15.8468835 Z M16.5002721,4.26225595 C16.1666858,4.27307226 15.8540022,4.09486905 15.6842107,3.79750905 C15.5140766,3.49997175 15.5140766,3.1306212 15.6842107,2.83326121 C15.8540022,2.53607853 16.1666858,2.35787532 16.5002721,2.36851432 C16.9947406,2.38411818 17.387437,2.80347202 17.387437,3.31520782 C17.387437,3.82729825 16.9947406,4.24647477 16.5002721,4.26225595 L16.5002721,4.26225595 Z M8.72241685,1.89419233 C8.38883054,1.90483132 8.07597558,1.72680543 7.90635542,1.42944543 C7.73639259,1.13226276 7.73639259,0.76255758 7.90635542,0.465197588 C8.07597558,0.168192229 8.38883054,-0.010188303 8.72241685,0.000450694919 C9.21671398,0.0164091918 9.60958168,0.43558571 9.60958168,0.947498827 C9.60958168,1.45923463 9.21671398,1.87841115 8.72241685,1.89419233 L8.72241685,1.89419233 Z M0.943533552,4.26225595 C0.610118572,4.27307226 0.297092279,4.09486905 0.12747212,3.79750905 C-0.0424907065,3.49997175 -0.0424907065,3.1306212 0.12747212,2.83326121 C0.297092279,2.53607853 0.610118572,2.35787532 0.943533552,2.36851432 C1.43800202,2.38411818 1.83104105,2.80347202 1.83104105,3.31520782 C1.83104105,3.82729825 1.43800202,4.24647477 0.943533552,4.26225595 L0.943533552,4.26225595 Z M2.87189203,13.7054305 L1.64034687,6.09819236 C1.58791882,5.77388024 1.95320183,5.557022 2.19718073,5.7671422 L4.9337193,8.12616268 C5.09305944,8.26340575 5.332755,8.22404146 5.44292244,8.04229191 L8.36518651,3.22672682 C8.50345264,2.99887494 8.82693028,3.00738614 8.9538884,3.24197605 L11.5480488,8.03519925 C11.6489643,8.22155903 11.8850618,8.27386743 12.0507413,8.14655409 L15.2752377,5.67050464 C15.5211012,5.48183974 15.8646249,5.69657018 15.8176795,6.00953404 L14.6625491,13.7054305 L2.87189203,13.7054305 Z"></path>
                    </g>
                </g>
            </g>
        </g>
    </g>
</svg>