<?xml version="1.0" encoding="UTF-8"?>
<svg width="33px" height="32px" viewBox="0 0 33 32" version="1.1" xmlns="http://www.w3.org/2000/svg" xmlns:xlink="http://www.w3.org/1999/xlink">
    <title>皇冠1</title>
    <g id="页面-1" stroke="none" stroke-width="1" fill="none" fill-rule="evenodd">
        <g id="苹果AB面主页" transform="translate(-205.000000, -126.000000)" fill="#F3993E">
            <g id="编组-2" transform="translate(16.000000, 95.000000)">
                <g id="皇冠1" transform="translate(189.242756, 30.997686)">
                    <g transform="translate(16.160056, 15.818118) rotate(33.000000) translate(-16.160056, -15.818118) translate(4.020017, 4.841008)" id="Fill-1">
                        <path d="M4.57116143,21.9542197 C4.23596844,21.9542197 3.96393816,21.6746656 3.96393816,21.3307502 C3.96393816,20.9865891 4.23596844,20.7075263 4.57116143,20.7075263 L19.9395564,20.7075263 C20.2749886,20.7075263 20.5465404,20.9865891 20.5465404,21.3307502 C20.5465404,21.6746656 20.2749886,21.9542197 19.9395564,21.9542197 L4.56996516,21.9542197 L4.57116143,21.9542197 Z M23.041228,5.90491523 C22.575403,5.91990011 22.1387669,5.67301797 21.9016675,5.26105643 C21.6640896,4.84884923 21.6640896,4.33715221 21.9016675,3.92519067 C22.1387669,3.51347477 22.575403,3.26659263 23.041228,3.28133186 C23.7317111,3.30294941 24.2800783,3.88392081 24.2800783,4.59287789 C24.2800783,5.30232628 23.7317111,5.88305203 23.041228,5.90491523 L23.041228,5.90491523 Z M12.1801139,2.62420775 C11.714289,2.63894699 11.2774136,2.3923105 11.0405535,1.98034895 C10.8032149,1.56863306 10.8032149,1.05644474 11.0405535,0.644483192 C11.2774136,0.233012955 11.714289,-0.0141148411 12.1801139,0.000624391243 C12.8703579,0.0227332398 13.4189642,0.603458995 13.4189642,1.31266173 C13.4189642,2.0216188 12.8703579,2.60234456 12.1801139,2.62420775 L12.1801139,2.62420775 Z M1.31756443,5.90491523 C0.851978742,5.91990011 0.414864122,5.67301797 0.178003983,5.26105643 C-0.059334661,4.84884923 -0.059334661,4.33715221 0.178003983,3.92519067 C0.414864122,3.51347477 0.851978742,3.26659263 1.31756443,3.28133186 C2.00804762,3.30294941 2.55689324,3.88392081 2.55689324,4.59287789 C2.55689324,5.30232628 2.00804762,5.88305203 1.31756443,5.90491523 L1.31756443,5.90491523 Z M4.01035318,18.9874579 L2.29060502,8.44841543 C2.2173937,7.99911449 2.72748039,7.69867981 3.06817618,7.98977965 L6.88951976,11.2579588 C7.11202473,11.4480949 7.44673921,11.3935597 7.60057868,11.1417645 L11.6812721,4.47029661 C11.874349,4.15463138 12.3260581,4.16642277 12.5033443,4.49142284 L16.1258689,11.1319383 C16.2667887,11.3901206 16.5964789,11.4625884 16.8278362,11.286209 L21.3305714,7.85589829 C21.673899,7.59452257 22.1536006,7.89200941 22.0880453,8.32558849 L20.4750039,18.9874579 L4.01035318,18.9874579 Z"></path>
                    </g>
                </g>
            </g>
        </g>
    </g>
</svg>